<?xml version="1.0" encoding="UTF-8" standalone="no"?>
<!-- Generator: Adobe Illustrator 16.0.0, SVG Export Plug-In . SVG Version: 6.00 Build 0)  -->

<svg
   version="1.1"
   id="Layer_2"
   x="0px"
   y="0px"
   width="198.67558"
   height="59.761562"
   viewBox="0 0 198.67558 59.761564"
   enable-background="new 0 0 1400 980"
   xml:space="preserve"
   sodipodi:docname="1.svg"
   inkscape:export-filename="1.svg"
   inkscape:export-xdpi="95.5"
   inkscape:export-ydpi="95.5"
   xmlns:inkscape="http://www.inkscape.org/namespaces/inkscape"
   xmlns:sodipodi="http://sodipodi.sourceforge.net/DTD/sodipodi-0.dtd"
   xmlns="http://www.w3.org/2000/svg"
   xmlns:svg="http://www.w3.org/2000/svg"><sodipodi:namedview
   id="namedview620"
   pagecolor="#505050"
   bordercolor="#eeeeee"
   borderopacity="1"
   inkscape:showpageshadow="0"
   inkscape:pageopacity="0"
   inkscape:pagecheckerboard="0"
   inkscape:deskcolor="#505050"
   showgrid="false" /><defs
   id="defs529" />



<g
   id="g1332"
   transform="matrix(0.4352605,0,0,0.61763493,-118.01016,-333.0206)"><g
     id="g4627"><g
       id="XMLID_491_"
       transform="matrix(0.93548306,0,0,0.74885724,6.0588411,290.69171)">
			<path
   id="XMLID_600_"
   fill="#f9b000"
   d="m 465.626,367.974 c 0.082,-0.018 0.164,-0.041 0.248,-0.074 -0.082,0.025 -0.166,0.048 -0.248,0.074 z" />
		</g><g
       id="XMLID_490_"
       transform="matrix(0.93548306,0,0,0.74885724,6.0588411,290.69171)"
       style="fill:#d16527;fill-opacity:1">
			<path
   id="XMLID_599_"
   fill="#f9b000"
   d="m 505.707,372.673 c -0.771,-0.246 -1.651,-0.635 -2.005,-1.504 -0.583,-1.424 0.751,-2.605 1.973,-2.811 1.636,-0.281 3.391,0.148 4.889,1.17 -2.378,-3.252 -6.153,-5.285 -9.773,-5.115 -2.979,0.139 -5.753,1.654 -9.026,1.715 -3.429,0.064 -7.999,-2.529 -8.214,-6.291 -0.163,-2.758 2.201,-4.518 4.658,-4.936 6.509,-1.117 13.301,4.412 19.017,4.438 3.774,0.02 6.753,-2.529 8.066,-6.109 -2.77,2.553 -7.323,2.771 -11.687,0.318 -0.507,-0.277 -1.022,-0.613 -1.397,-1.123 -1.045,-1.424 -0.303,-3.334 0.985,-3.627 1.262,-0.283 2.719,0.453 4.043,1.158 -4.498,-4.078 -10.313,-3.105 -15.534,-1.729 -5.652,1.482 -13.111,2.834 -19.851,-2.127 -1.846,-1.35 -3.555,-3.271 -3.871,-5.25 -0.484,-3.014 2.574,-4.656 5.662,-4.125 2.972,0.508 5.829,2.451 8.374,4.359 -5.441,-7.436 -17.776,-10.91 -23.668,-5.756 -2.089,1.836 -3.218,5.256 -5.583,7.199 1.131,2.385 1.992,4.732 2.601,7.021 6.545,-2.061 14.682,1.975 18.954,7.389 -2.364,-1.406 -7.71,-0.475 -6.083,3.266 2.173,4.994 4.003,-3.729 11.036,1.682 -6.085,-0.914 -4.738,6.535 5.037,4.17 1.474,0.82 -4.244,2.439 -4.244,2.439 -12.021,3.674 -14.035,-7.795 -17.82,-1.514 1.141,0.1 2.222,1.242 3.381,0.992 0.082,-0.025 0.166,-0.049 0.248,-0.074 -0.084,0.033 -0.166,0.057 -0.248,0.074 -3.961,1.186 -8.41,2.521 -12.449,1.811 -1.742,2.824 -4.152,5.244 -7.193,7.129 3.121,1.926 6.289,3.598 9.67,4.641 4.92,1.512 10.427,1.447 14.026,-1.094 -2.406,0.08 -5.017,0.146 -7.339,-0.889 -2.391,-1.059 -4.23,-3.656 -3.213,-5.74 0.844,-1.74 3.232,-2.373 5.372,-2.416 5.274,-0.109 10.163,2.25 14.343,4.715 3.976,2.352 7.708,4.93 11.722,5.908 3.813,0.924 8.032,0.002 9.799,-3.244 -2.178,0.74 -4.748,0.494 -7.049,-0.709 -0.678,-0.355 -1.416,-0.949 -1.408,-1.73 0.012,-0.48 0.323,-0.869 0.66,-1.158 1.653,-1.432 4.04,-1.334 6.143,-0.916 4.202,0.844 8.038,2.738 11.759,3.775 3.516,0.98 7.15,1.109 9.686,-1.041 1.761,-1.494 2.816,-3.928 3.799,-6.238 0.761,-1.783 1.508,-3.535 2.24,-5.258 -3.853,6.708 -11.847,9.891 -20.488,7.155 z"
   style="fill:#d16527;fill-opacity:1" />
		</g><g
       id="XMLID_489_"
       transform="matrix(0.93548306,0,0,0.74885724,6.0588411,290.69171)"
       style="fill:#d16527;fill-opacity:1">
				<path
   id="XMLID_598_"
   fill="#f9b000"
   d="m 451.452,347.431 c -0.813,-1.643 -1.916,-3.207 -3.158,-4.576 -1.295,-1.428 -2.604,-2.375 -4.178,-3.469 -0.078,-0.055 -0.184,0.053 -0.111,0.121 2.875,2.701 4.412,6.561 5.27,10.236 0.036,0.158 0.069,0.314 0.104,0.471 0.213,0.07 0.426,0.139 0.648,0.195 -0.223,-0.057 -0.436,-0.125 -0.648,-0.195 0.746,3.488 0.752,6.961 -0.202,10.383 -1.999,7.17 -6.705,13.863 -12.454,18.67 -0.396,0.332 0.041,0.957 0.51,0.752 6.06,-2.648 10.674,-7.906 13.457,-13.693 2.776,-5.776 3.748,-12.858 0.762,-18.895 z"
   style="fill:#d16527;fill-opacity:1" />
			</g><g
       id="XMLID_488_"
       transform="matrix(0.93548306,0,0,0.74885724,6.0588411,290.69171)">
				<path
   id="XMLID_597_"
   fill="#ffffff"
   d="m 306.006,387.278 c 0.764,-2.848 1.288,-5.73 2.184,-8.543 0.871,-2.736 1.941,-5.441 3.098,-8.066 2.402,-5.455 5.645,-10.215 9.355,-14.861 6.926,-8.676 16.323,-15.701 26.813,-19.713 5.928,-2.266 12.479,-3.783 18.876,-3.906 0.204,-0.004 0.238,-0.305 0.025,-0.311 -5.89,-0.203 -11.586,0.252 -17.292,1.758 -5.511,1.455 -10.925,3.646 -15.76,6.617 -5.142,3.16 -9.674,7.191 -13.577,11.73 -3.9,4.535 -6.825,9.914 -9.196,15.361 -1.327,3.049 -2.419,6.172 -3.18,9.406 -0.798,3.393 -1.63,6.963 -1.646,10.463 0,0.155 0.252,0.241 0.3,0.065 z" />
			</g><g
       id="XMLID_487_"
       transform="matrix(0.93548306,0,0,0.74885724,6.0588411,290.69171)">
				<path
   id="XMLID_591_"
   fill="#f9b000"
   d="m 305.046,388.958 c -0.018,-0.002 -0.021,0.023 -0.003,0.025 0.018,0.002 0.02,-0.025 0.003,-0.025 z" />
			</g><g
       id="XMLID_486_"
       transform="matrix(0.93548306,0,0,0.74885724,6.0588411,290.69171)">
				<path
   id="XMLID_590_"
   fill="#ffffff"
   d="m 444.374,343.937 c -0.461,-0.971 -1.047,-1.824 -1.783,-2.566 -0.018,-0.6 -0.356,-1.174 -1.114,-1.406 -0.495,-0.15 -1.001,-0.271 -1.513,-0.375 -0.532,-0.193 -1.071,-0.283 -1.652,-0.273 -0.973,-0.133 -1.949,-0.229 -2.902,-0.34 -2.056,-0.24 -4.104,-0.611 -6.148,-0.951 -4.186,-0.695 -8.377,-1.383 -12.582,-1.996 -4.121,-0.602 -8.248,-1.184 -12.381,-1.75 -4.213,-0.58 -8.489,-0.838 -12.722,-1.252 -0.213,-0.021 -0.222,0.268 -0.022,0.311 4.119,0.869 8.225,1.914 12.357,2.695 4.119,0.779 8.238,1.541 12.349,2.328 4.104,0.785 8.21,1.531 12.312,2.291 1.98,0.367 3.972,0.709 5.933,1.168 1.653,0.387 3.353,0.898 5.048,1.16 0.065,0.047 0.131,0.092 0.194,0.145 0.821,0.686 1.532,1.531 2.218,2.355 1.316,0.953 2.561,2.025 3.918,2.953 -0.441,-1.507 -0.832,-3.066 -1.51,-4.497 z" />
			</g><g
       id="XMLID_483_"
       transform="matrix(0.93548306,0,0,0.74885724,6.0588411,290.69171)">
				<path
   id="XMLID_735_"
   fill="#ffffff"
   d="m 445.995,348.833 c -0.027,-0.096 -0.053,-0.193 -0.081,-0.289 -0.011,-0.037 -0.021,-0.074 -0.032,-0.111 -1.357,-0.928 -2.602,-2 -3.918,-2.953 0.09,0.109 0.18,0.219 0.269,0.324 0.115,0.139 0.231,0.279 0.351,0.42 -2.023,-0.979 -4.309,-1.506 -6.464,-1.961 -3.606,-0.762 -7.243,-1.398 -10.869,-2.09 -7.568,-1.443 -15.15,-2.967 -22.771,-4.24 -14.208,-2.373 -28.906,-3.627 -43.076,-0.217 -7.1,1.709 -13.908,4.477 -19.924,8.563 -0.186,0.127 0.019,0.436 0.217,0.326 10.333,-5.688 22.338,-7.643 34.107,-7.461 -6.117,0.602 -12.12,1.975 -18.02,4.012 -8.605,2.969 -16.975,7.033 -22.829,14.076 -5.979,7.191 -9.103,16.348 -10.909,25.391 -0.05,0.246 0.366,0.334 0.445,0.096 2.59,-7.74 6.238,-14.988 11.527,-21.26 2.529,-2.998 5.529,-5.715 8.868,-7.832 3.805,-2.414 8.114,-4.068 12.378,-5.525 8.863,-3.027 18.154,-4.896 27.574,-4.539 9.899,0.375 19.665,2.447 29.344,4.291 5.484,1.045 10.963,2.072 16.454,2.998 2.737,0.463 5.472,0.967 8.213,1.377 1.736,0.26 3.401,0.535 5.081,0.609 0.429,0.053 0.854,0.076 1.261,0.035 0.028,-0.004 0.053,-0.012 0.075,-0.023 0.267,-0.008 0.536,-0.02 0.806,-0.041 0.557,0.176 1.117,0.328 1.686,0.428 0.094,0.016 0.173,0.004 0.238,-0.023 0.156,0.004 0.323,-0.086 0.359,-0.277 0.223,-1.188 0.066,-2.4 -0.223,-3.578 -0.016,-0.18 -0.06,-0.356 -0.137,-0.526 z m -6.2,-1.613 c 0.016,-0.256 0.016,-0.256 0.032,-0.51 -0.016,0.254 -0.016,0.254 -0.032,0.51 z" />
			</g><g
       id="XMLID_482_"
       transform="matrix(0.93548306,0,0,0.74885724,6.0588411,290.69171)"
       style="fill:#d16527;fill-opacity:1">
				<path
   id="XMLID_589_"
   fill="#f9b000"
   d="m 446.243,357.854 c 0.011,-0.289 -0.208,-0.525 -0.498,-0.564 -0.682,-0.092 -1.336,-0.146 -1.98,-0.166 -0.098,-0.037 -0.193,-0.072 -0.288,-0.102 -2.012,-0.629 -4.213,-0.904 -6.272,-1.336 -3.867,-0.811 -7.786,-1.35 -11.662,-2.15 -3.879,-0.803 -7.794,-1.412 -11.688,-2.17 -3.977,-0.775 -7.926,-1.65 -11.932,-2.295 -3.916,-0.629 -7.855,-1.229 -11.818,-1.492 -3.8,-0.25 -7.61,-0.135 -11.406,0.107 -15.31,0.977 -30.67,6.502 -41.288,17.682 -0.147,0.154 0.119,0.383 0.279,0.248 10.691,-9.006 24.604,-13.117 38.52,-13.621 7.746,-0.281 15.638,0.566 23.27,1.785 7.01,1.121 13.973,2.461 20.945,3.676 -1.783,-0.006 -3.565,0.039 -5.353,0.039 -4.559,0.002 -9.121,0.115 -13.691,-0.154 -4.735,-0.277 -9.475,-0.58 -14.222,-0.848 -0.311,-0.018 -0.331,0.406 -0.034,0.461 4.699,0.865 9.402,1.629 14.115,2.342 4.543,0.688 9.026,1.684 13.539,2.504 2.254,0.412 4.495,0.879 6.759,1.201 2.249,0.318 4.528,0.438 6.785,0.65 2.257,0.212 4.519,0.438 6.776,0.59 1.324,0.09 2.788,0.262 4.217,0.281 0.025,0.076 0.088,0.137 0.188,0.139 0.53,0.004 1.037,0.141 1.479,0.447 0.256,0.178 0.445,0.428 0.674,0.627 0.014,0.027 0.026,0.057 0.042,0.082 0.015,0.027 0.032,0.049 0.05,0.07 -0.446,1.172 -0.897,2.342 -1.264,3.541 -0.025,0.082 0.071,0.146 0.139,0.096 1.738,-1.305 2.996,-3.168 3.936,-5.092 0.514,-1.053 0.92,-2.17 1.23,-3.299 0.164,-0.598 0.354,-1.188 0.261,-1.744 0.112,-0.507 0.173,-1.027 0.192,-1.535 z"
   style="fill:#d16527;fill-opacity:1" />
			</g><g
       id="XMLID_481_"
       transform="matrix(0.93548306,0,0,0.74885724,6.0588411,290.69171)">
				<path
   id="XMLID_588_"
   fill="#f9b000"
   d="m 389.302,378.091 c 0.048,0.004 0.054,-0.068 0.005,-0.074 -0.048,-0.004 -0.053,0.07 -0.005,0.074 z" />
			</g><g
       id="XMLID_480_"
       transform="matrix(0.93548306,0,0,0.74885724,6.0588411,290.69171)">
				<path
   id="XMLID_587_"
   fill="#ffffff"
   d="m 375.309,394.56 c 0.031,1.621 1.064,3.119 2.541,3.846 1.029,0.508 3.058,0.764 3.395,-0.691 0.02,-0.086 -0.041,-0.186 -0.144,-0.164 -1.789,0.369 -3.615,-0.662 -4.082,-2.479 -0.586,-2.279 2.28,-4.412 4.194,-2.611 0.145,0.135 0.337,-0.033 0.23,-0.191 -2.056,-3.064 -6.199,-0.986 -6.134,2.29 z" />
			</g><g
       id="XMLID_479_"
       transform="matrix(0.93548306,0,0,0.74885724,6.0588411,290.69171)"
       style="fill:#d16527;fill-opacity:1">
				<path
   id="XMLID_586_"
   fill="#f9b000"
   d="m 381.224,393.806 c 0.054,0.021 0.099,-0.035 0.078,-0.084 -0.104,-0.244 -0.167,-0.359 -0.421,-0.477 -0.262,-0.121 -0.549,-0.16 -0.835,-0.146 -0.61,0.027 -1.205,0.166 -1.511,0.73 -0.323,0.598 -0.244,1.395 0.189,1.936 0.441,0.551 1.158,0.854 1.773,0.43 0.151,-0.105 0.109,-0.334 -0.023,-0.432 -0.46,-0.336 -1.217,-0.854 -0.949,-1.51 0.299,-0.731 1.054,-0.695 1.699,-0.447 z"
   style="fill:#d16527;fill-opacity:1" />
			</g><g
       id="XMLID_476_"
       transform="matrix(0.93548306,0,0,0.74885724,6.0588411,290.69171)"
       style="fill:#d16527;fill-opacity:1">
				<path
   id="XMLID_723_"
   fill="#f9b000"
   d="m 378.305,400.993 c -1.398,-0.049 -2.957,-0.656 -4.129,-1.609 -0.338,-0.42 -0.753,-0.813 -1.098,-1.162 -0.166,-0.24 -0.309,-0.49 -0.422,-0.75 -0.467,-1.072 -0.495,-2.293 -0.156,-3.398 0.209,-0.68 0.561,-1.295 0.857,-1.926 0.035,-0.057 0.07,-0.113 0.105,-0.17 0.527,-0.523 1.12,-0.986 1.76,-1.361 0.034,-0.02 0.055,-0.049 0.065,-0.078 0.489,-0.125 0.965,-0.281 1.442,-0.465 0.184,-0.07 0.082,-0.377 -0.111,-0.326 -1.252,0.328 -2.473,0.424 -3.775,0.357 -0.124,-0.006 -0.256,0.043 -0.324,0.148 -0.719,1.1 -1.4,2.219 -2.079,3.346 -0.345,0.572 -1.108,1.377 -0.874,2.088 0.211,0.641 1.08,1.289 1.627,1.871 0.037,0.119 0.077,0.232 0.121,0.34 0.307,0.762 0.785,1.432 1.373,1.996 0.238,0.482 0.45,0.977 0.639,1.488 0.037,0.102 0.152,0.152 0.252,0.168 0.837,0.141 1.615,0.244 2.4,0.002 0.752,0.068 1.495,-0.076 2.339,-0.336 0.113,-0.035 0.127,-0.217 -0.012,-0.223 z m -4.604,-0.297 c 0.186,0.119 0.375,0.232 0.57,0.334 -0.209,-0.059 -0.398,-0.154 -0.551,-0.311 -0.005,-0.005 -0.011,-0.015 -0.019,-0.023 z"
   style="fill:#d16527;fill-opacity:1" />
			</g><g
       id="XMLID_475_"
       transform="matrix(0.93548306,0,0,0.74885724,6.0588411,290.69171)">
				<path
   id="XMLID_585_"
   fill="#ffffff"
   d="m 362.146,393.513 c 0.031,0.057 0.115,0.057 0.14,-0.006 0.258,-0.66 0.36,-1.377 0.646,-2.023 0.348,-0.789 0.861,-1.553 1.346,-2.262 0.379,-0.555 0.736,-1.125 1.105,-1.688 -0.516,1.611 -0.563,3.471 -0.13,4.973 0.052,0.18 0.287,0.201 0.366,0.031 0.457,-0.998 0.834,-1.945 1.502,-2.838 0.584,-0.779 1.28,-1.469 1.89,-2.227 0.476,0.545 0.954,1.088 1.437,1.631 0.055,0.063 0.18,0.016 0.154,-0.072 -0.467,-1.596 -1.105,-3.068 -2.064,-4.449 -0.716,-1.029 -1.696,-2.926 -3.143,-2.855 -0.189,0.01 -0.313,0.205 -0.337,0.365 -0.003,0.016 -10e-4,0.029 -0.003,0.045 -0.035,0.018 -0.069,0.037 -0.102,0.066 -1.849,1.68 -3.291,4.689 -3.244,7.324 -0.206,1.323 -0.209,2.83 0.437,3.985 z" />
			</g><g
       id="XMLID_455_"
       transform="matrix(0.93548306,0,0,0.74885724,6.0588411,290.69171)">
				<path
   id="XMLID_584_"
   fill="#ffffff"
   d="m 368.531,381.479 c 1.816,-0.441 3.861,-0.885 5.746,-0.826 0.518,0.016 1.051,0.061 1.575,0.148 -0.571,0.154 -1.138,0.365 -1.712,0.662 -1.338,0.689 -2.563,1.57 -3.546,2.705 -0.125,0.145 0.048,0.322 0.205,0.309 2.271,-0.197 4.574,-0.268 6.859,-0.23 -0.546,0.119 -1.075,0.275 -1.589,0.563 -0.832,0.463 -1.176,0.984 -1.719,1.717 -0.053,0.07 0.033,0.164 0.111,0.127 0.627,-0.283 1.523,-0.416 2.209,-0.521 0.715,-0.109 1.418,-0.078 2.137,-0.09 -0.092,0.867 -0.146,1.742 -0.166,2.602 -0.002,0.092 0.129,0.154 0.184,0.066 0.389,-0.639 0.747,-1.311 1.053,-2.004 0.535,-0.889 0.86,-1.938 1.091,-3 0.813,-1.135 1.216,-2.52 1.361,-3.91 0.024,-0.23 -0.136,-0.436 -0.345,-0.521 -1.289,-0.535 -3.912,-1.594 -5.543,-0.959 -0.446,-0.02 -0.892,-0.006 -1.322,0.051 -2.396,0.311 -4.936,1.248 -6.738,2.811 -0.124,0.107 -0.028,0.343 0.149,0.3 z" />
			</g><g
       id="XMLID_454_"
       transform="matrix(0.93548306,0,0,0.74885724,6.0588411,290.69171)">
				<path
   id="XMLID_583_"
   fill="#ffffff"
   d="m 383.709,396.304 c 0.619,0.01 1.236,0.033 1.852,0.061 0.637,0.084 1.277,0.125 1.918,0.113 0.436,0.031 0.871,0.066 1.309,0.105 1.279,0.109 3.007,0.553 4.194,0.035 0.02,-0.008 0.029,-0.023 0.044,-0.037 0.026,0.064 0.056,0.127 0.091,0.189 0.043,0.076 0.166,0.104 0.217,0.018 0.348,-0.576 0.23,-1.346 -0.053,-2.068 0.009,-0.053 0.018,-0.105 0.023,-0.16 0.197,-2.098 -0.827,-3.791 -1.835,-5.568 -0.879,-1.551 -1.913,-3.137 -3.338,-4.256 -0.062,-0.049 -0.149,0.016 -0.136,0.086 0.399,2.018 1.239,3.957 1.669,5.955 -0.134,-0.188 -0.27,-0.375 -0.405,-0.559 -0.659,-0.893 -1.706,-2.363 -2.818,-2.678 -0.096,-0.027 -0.179,0.041 -0.165,0.137 0.066,0.529 0.368,0.877 0.602,1.354 0.307,0.625 0.537,1.291 0.727,1.959 0.119,0.42 0.189,0.842 0.242,1.266 -0.63,-0.703 -1.456,-1.25 -2.231,-1.453 -0.164,-0.043 -0.366,0.113 -0.265,0.287 0.384,0.652 0.783,1.33 1.057,2.035 0.262,0.668 0.285,1.365 0.59,1.994 -0.891,0.219 -1.766,0.521 -2.588,0.916 -0.006,0.004 -0.009,0.01 -0.014,0.014 -0.232,0.02 -0.465,0.039 -0.697,0.061 -0.114,0.008 -0.103,0.192 0.01,0.194 z" />
			</g><g
       id="XMLID_453_"
       transform="matrix(0.93548306,0,0,0.74885724,6.0588411,290.69171)">
				<path
   id="XMLID_582_"
   fill="#ffffff"
   d="m 384.313,412.118 c 0.429,0.604 1.354,0.186 1.454,-0.412 0.216,-0.158 0.391,-0.354 0.587,-0.557 0.253,-0.262 0.502,-0.473 0.616,-0.797 v -0.002 c 1.34,-0.73 2.532,-2.26 3.082,-3.289 0.715,-1.342 1.891,-3.932 1.126,-5.43 -0.022,-0.043 -0.079,-0.053 -0.117,-0.023 -0.597,0.451 -0.911,1.256 -1.374,1.844 -0.556,0.707 -1.176,1.311 -1.887,1.867 -0.207,0.162 -0.415,0.322 -0.625,0.482 0.396,-0.957 0.412,-1.855 0.574,-2.857 0.018,-0.113 -0.146,-0.156 -0.207,-0.072 -0.819,1.105 -2.156,1.805 -3.384,2.535 0.353,-0.963 0.384,-2.135 0.159,-2.914 -0.01,-0.033 -0.055,-0.059 -0.084,-0.029 -0.448,0.473 -0.918,0.92 -1.531,1.184 -0.609,0.262 -1.31,0.49 -1.721,0.996 -0.557,-0.645 -1.132,-1.264 -1.725,-1.844 -0.053,-0.053 -0.131,0 -0.105,0.066 1.219,3.219 3.16,6.43 5.162,9.252 z" />
			</g><g
       id="XMLID_452_"
       transform="matrix(0.93548306,0,0,0.74885724,6.0588411,290.69171)">
				<path
   id="XMLID_581_"
   fill="#ffffff"
   d="m 367.462,410.646 c 0.178,0.436 0.532,0.801 1.077,1 1.49,0.545 2.951,1.01 4.537,1.186 1.213,0.135 2.803,0.33 3.969,-0.051 0.016,-0.004 0.02,-0.027 0.009,-0.037 -0.978,-1.021 -2.6,-1.744 -3.804,-2.504 -0.044,-0.029 -0.089,-0.053 -0.133,-0.08 1.532,0.133 3.109,0.102 4.107,0.324 0.099,0.023 0.215,-0.088 0.125,-0.178 -0.93,-0.928 -1.889,-1.99 -2.983,-2.732 -0.285,-0.193 -0.579,-0.355 -0.884,-0.5 0.999,0.016 2.001,-0.123 2.815,-0.412 0.063,-0.021 0.063,-0.115 0.012,-0.148 -0.718,-0.477 -1.59,-0.807 -2.38,-1.168 -0.826,-0.377 -1.65,-0.715 -2.533,-0.912 0.207,-0.715 0.371,-1.414 0.493,-2.063 0.045,-0.242 -0.287,-0.297 -0.415,-0.148 -0.963,1.105 -1.786,2.396 -2.578,3.637 -0.736,1.15 -1.604,2.42 -1.947,3.748 -0.104,0.405 0.155,0.864 0.513,1.038 z" />
			</g><g
       id="XMLID_451_"
       transform="matrix(0.93548306,0,0,0.74885724,6.0588411,290.69171)">
				<path
   id="XMLID_580_"
   fill="#ffffff"
   d="m 367.447,401.321 c 0.215,-0.641 -0.095,-1.34 -0.18,-1.98 -0.111,-0.852 -0.172,-1.691 -0.322,-2.539 -0.02,-0.115 -0.055,-0.217 -0.098,-0.311 0.443,-0.164 0.869,-0.348 1.259,-0.553 0.165,-0.088 0.104,-0.295 -0.063,-0.33 -1.832,-0.389 -4.223,-0.307 -6.012,0.225 -0.6,0.178 -0.787,0.986 -0.383,1.336 -0.314,1.025 0.418,2.299 0.906,3.246 0.609,1.184 1.438,2.408 2.631,3.111 0.055,0.033 0.131,-0.008 0.117,-0.074 -0.248,-1.254 -0.679,-2.486 -0.633,-3.781 0.019,-0.502 0.119,-0.988 0.166,-1.449 0.242,0.596 0.562,1.15 0.976,1.686 0.423,0.549 0.878,1.281 1.61,1.43 0.012,10e-4 0.024,-0.007 0.026,-0.017 z" />
			</g><g
       id="XMLID_450_"
       transform="matrix(0.93548306,0,0,0.74885724,6.0588411,290.69171)"
       style="fill:#d16527;fill-opacity:1">
				<path
   id="XMLID_579_"
   fill="#f9b000"
   d="m 350.781,394.835 c 0.033,0.129 0.256,0.178 0.294,0.023 0.751,-3.02 1.114,-6.045 2.12,-9.006 1.008,-2.963 2.443,-5.863 4.098,-8.518 0.828,-1.33 1.73,-2.623 2.708,-3.85 0.968,-1.217 1.817,-2.535 2.802,-3.727 0.98,-1.186 2.266,-2.176 3.404,-3.213 1.25,-1.141 2.788,-2.178 4.254,-3.033 0.122,-0.07 0.037,-0.256 -0.099,-0.197 -2.743,1.164 -5.222,2.561 -7.595,4.291 -0.613,0.35 -1.204,0.744 -1.75,1.051 -1.32,0.742 -2.523,1.574 -3.647,2.578 -2.214,1.98 -4.17,4.379 -5.715,6.895 -3.028,4.93 -5.193,10.881 -4.692,16.73 0.01,0.107 0.158,0.078 0.178,-0.008 1.199,-5.668 2.871,-10.988 6.139,-15.818 -0.89,1.951 -1.57,3.979 -2.063,6.107 -0.703,3.052 -1.221,6.599 -0.436,9.695 z"
   style="fill:#d16527;fill-opacity:1" />
			</g><g
       id="XMLID_449_"
       transform="matrix(0.93548306,0,0,0.74885724,6.0588411,290.69171)"
       style="fill:#d16527;fill-opacity:1">
				<path
   id="XMLID_578_"
   fill="#f9b000"
   d="m 435.573,372.78 c -1.473,-0.549 -3.125,-0.717 -4.658,-1.045 -1.738,-0.373 -3.512,-0.727 -5.274,-0.959 -0.664,-0.227 -1.351,-0.406 -2.011,-0.613 -1.486,-0.465 -2.986,-0.879 -4.483,-1.305 -2.291,-0.652 -4.696,-1.512 -7.095,-1.865 -0.974,-0.557 -2.03,-0.973 -3.023,-1.484 -0.18,-0.094 -0.355,0.131 -0.182,0.256 1.765,1.273 3.403,3.008 4.919,4.561 1.559,1.596 3.013,3.252 4.294,5.07 2.543,3.609 4.255,7.648 5.873,11.713 0.101,0.254 0.555,0.18 0.541,-0.098 -0.145,-3.145 -1.117,-6.152 -2.57,-8.943 -0.307,-1.037 -0.566,-2.092 -0.988,-3.102 -0.407,-0.977 -0.943,-1.883 -1.595,-2.701 0.188,0.012 0.372,0.023 0.548,0.039 1.826,0.162 3.652,0.33 5.479,0.482 1.731,0.143 3.495,0.158 5.229,0.166 1.629,0.008 3.39,0.186 4.99,-0.057 0.06,-0.007 0.063,-0.095 0.006,-0.115 z"
   style="fill:#d16527;fill-opacity:1" />
			</g><g
       id="XMLID_448_"
       transform="matrix(0.93548306,0,0,0.74885724,6.0588411,290.69171)">
				<path
   id="XMLID_577_"
   fill="#ffffff"
   d="m 374.053,355.753 c -8.953,-0.371 -18.203,2.02 -25.163,7.633 -7.485,6.039 -12.792,14.146 -14.464,23.631 -0.896,5.082 -1.066,10.969 0.572,15.951 0.07,0.217 0.457,0.258 0.457,-0.021 -0.016,-4.59 -0.031,-9.004 1.1,-13.482 1.077,-4.27 2.758,-8.41 5.007,-12.199 0.149,-0.252 0.31,-0.496 0.464,-0.744 -0.957,2.441 -1.631,4.988 -2.025,7.602 -0.691,4.572 -0.436,9.633 0.357,14.205 0.033,0.189 0.357,0.184 0.354,-0.018 -0.122,-8.008 2.594,-15.643 6.741,-22.41 1.81,-2.951 4.063,-5.533 6.871,-7.609 2.756,-2.035 6.01,-3.338 8.963,-5.059 1.683,-0.982 3.271,-1.951 5.121,-2.613 1.826,-0.654 3.831,-0.959 5.75,-1.258 0.349,-0.055 0.316,-0.574 -0.037,-0.604 -3.543,-0.283 -7.249,0.18 -10.782,0.457 -0.079,0.006 -0.155,0.018 -0.234,0.023 3.503,-1.498 7.142,-2.578 10.97,-3.123 0.206,-0.03 0.192,-0.354 -0.022,-0.362 z" />
			</g><g
       id="XMLID_447_"
       transform="matrix(0.93548306,0,0,0.74885724,6.0588411,290.69171)">
				<path
   id="XMLID_576_"
   fill="#f9b000"
   d="m 364.492,374.999 c 0.106,-0.162 0.213,-0.324 0.322,-0.484 -0.109,0.158 -0.216,0.32 -0.322,0.484 z" />
			</g><g
       id="XMLID_446_"
       transform="matrix(0.93548306,0,0,0.74885724,6.0588411,290.69171)"
       style="fill:#d16527;fill-opacity:1">
				<path
   id="XMLID_575_"
   fill="#f9b000"
   d="m 360.416,389.169 c 0.694,-3.783 2.672,-7.354 5.712,-9.791 6.343,-5.084 16.091,-4.715 22.992,-0.861 0.071,0.041 0.159,-0.039 0.101,-0.107 -2.783,-3.145 -6.607,-4.842 -10.617,-5.285 6.777,0.031 13.28,3.357 18.526,7.412 0.109,0.082 0.219,-0.064 0.149,-0.162 -4.832,-6.717 -13.471,-10.324 -21.728,-9.428 -3.87,0.418 -7.968,1.908 -11.228,4.316 -3.514,5.541 -5.511,12.85 -4.135,19.291 -0.152,-1.838 -0.084,-3.68 0.228,-5.385 z"
   style="fill:#d16527;fill-opacity:1" />
			</g><g
       id="XMLID_445_"
       transform="matrix(0.93548306,0,0,0.74885724,6.0588411,290.69171)"
       style="fill:#d16527;fill-opacity:1">
				<path
   id="XMLID_574_"
   fill="#f9b000"
   d="m 375.305,422.167 c -2.525,-0.211 -4.971,-0.773 -7.35,-1.682 -4.769,-1.818 -8.432,-5.111 -11.388,-9.143 -0.095,-0.129 -0.302,0.01 -0.233,0.148 2.276,4.559 6.451,8.281 11.046,10.561 0.17,0.084 0.345,0.158 0.517,0.238 -0.968,-0.211 -1.917,-0.471 -2.827,-0.795 -5.489,-1.949 -10.56,-5.961 -13.186,-11.131 -0.091,-0.176 -0.34,-0.049 -0.276,0.131 2.074,5.855 6.658,10.203 12.376,12.771 3.354,1.506 6.749,2.461 10.434,2.68 0.687,0.041 1.372,0.057 2.058,0.061 -0.107,0.037 -0.216,0.074 -0.323,0.111 -3.926,1.361 -8.367,1.432 -12.422,0.441 -4.173,-1.02 -7.604,-3.352 -10.589,-6.332 -2.937,-2.934 -5.639,-6.096 -8.001,-9.484 -0.032,-0.047 -0.112,0.006 -0.085,0.055 3.996,7.451 9.479,15.395 18.089,18.033 4.337,1.328 8.774,1.191 13.235,0.889 2.303,-0.156 4.418,-0.689 6.602,-1.393 2.229,-0.717 4.79,-1.488 6.562,-3.051 0.761,0.014 1.521,-0.004 2.278,-0.047 -5.669,0.037 -11.342,-0.918 -16.517,-3.061 z"
   style="fill:#d16527;fill-opacity:1" />
			</g><g
       id="XMLID_444_"
       transform="matrix(0.93548306,0,0,0.74885724,6.0588411,290.69171)"
       style="fill:#d16527;fill-opacity:1">
				<path
   id="XMLID_573_"
   fill="#f9b000"
   d="m 418.419,391.058 c 0.043,14.465 -5.849,29.803 -20.713,33.33 -0.043,0.043 -0.086,0.084 -0.13,0.125 -6.935,6.594 -17.027,10.893 -26.82,10.596 -5.791,-0.174 -11.67,-2.252 -16.818,-4.803 -5.344,-2.648 -10.203,-6.537 -13.23,-11.652 -0.057,-0.098 -0.209,-0.029 -0.162,0.076 4.188,9.283 13.576,14.77 23.115,17.678 9.867,3.006 20.242,1.795 28.989,-3.451 4.287,-2.57 8.061,-5.773 11.336,-9.482 -2.063,3.031 -4.213,6.025 -6.879,8.586 -2.551,2.449 -5.545,4.393 -8.766,5.9 -6.691,3.131 -14.415,3.768 -21.737,2.98 -7.412,-0.799 -13.936,-4.012 -20.041,-8.119 -7.04,-4.734 -12.42,-11.758 -15.252,-19.617 -0.053,-0.148 -0.303,-0.066 -0.267,0.084 1.87,7.662 6.058,14.307 11.479,20.078 2.745,2.922 5.805,5.359 9.32,7.338 3.598,2.023 7.338,3.287 11.213,4.643 3.857,1.35 8.238,1.459 12.266,1.174 4.227,-0.301 8.42,-1.045 12.391,-2.475 3.944,-1.42 7.679,-3.098 11.06,-5.559 3.801,-2.766 6.557,-6.482 9.252,-10.232 3.211,-4.467 6.161,-8.943 7.828,-14.195 3.355,-7.023 4.293,-15.41 2.566,-23.003 z"
   style="fill:#d16527;fill-opacity:1" />
			</g><g
       id="XMLID_443_"
       transform="matrix(0.93548306,0,0,0.74885724,6.0588411,290.69171)">
				<path
   id="XMLID_572_"
   fill="#ffffff"
   d="m 403.519,401.122 c 0.703,-3.693 0.523,-7.82 -0.845,-11.365 -0.065,-0.168 -0.36,-0.115 -0.356,0.064 0.102,4.145 -0.4,7.955 -1.769,11.885 -0.736,2.113 -1.708,4.02 -2.923,5.773 0.923,-1.797 1.616,-3.709 2.041,-5.678 1.03,-4.773 0.153,-9.961 -2.123,-14.291 -0.071,-0.135 -0.292,-0.07 -0.26,0.084 1.537,7.262 0.254,15.141 -4.424,21.055 -2.037,2.574 -4.671,4.658 -7.787,5.854 -3.102,1.191 -6.307,1.363 -9.573,0.809 -1.705,-0.289 -3.436,-0.961 -5.033,-1.619 -1.016,-0.418 -2,-0.9 -2.946,-1.445 -0.009,-0.008 -0.017,-0.016 -0.024,-0.025 3.883,4.898 9.929,7.793 16.266,8.715 2.689,-0.639 5.264,-1.684 7.468,-2.949 6.22,-3.572 10.952,-9.857 12.288,-16.867 z" />
			</g><g
       id="XMLID_440_"
       transform="matrix(0.93548306,0,0,0.74885724,6.0588411,290.69171)">
				<path
   id="XMLID_691_"
   fill="#ffffff"
   d="m 418.419,391.058 c -0.072,-0.316 -0.147,-0.633 -0.229,-0.947 -0.06,-0.607 -0.139,-1.213 -0.242,-1.818 -1.161,-6.711 -4.737,-13.158 -9.563,-18.051 -5.023,-5.094 -11.889,-8.775 -19.073,-9.65 -3.754,-0.457 -7.602,-0.225 -11.19,0.775 -0.093,-0.074 -0.221,-0.107 -0.384,-0.059 -3.035,0.898 -6.042,2.141 -8.541,4.07 -2.482,1.918 -4.719,4.172 -6.587,6.672 -3.86,5.17 -6.27,11.398 -6.825,17.834 -0.563,6.521 1.003,13.178 4.221,18.957 2.373,4.26 5.863,7.654 9.927,10.271 0.013,0.213 0.126,0.418 0.384,0.564 0.772,0.436 1.58,0.791 2.412,1.072 0.996,0.527 2.018,1.012 3.057,1.457 -0.161,-0.01 -0.32,-0.027 -0.48,-0.039 5.176,2.143 10.849,3.098 16.516,3.063 2.04,-0.117 4.065,-0.439 6.044,-0.992 -0.053,0.051 -0.105,0.1 -0.158,0.15 14.862,-3.527 20.754,-18.865 20.711,-33.329 z m -5.733,13.546 c -1.146,3.186 -2.364,6.336 -4.52,9.01 -1.853,2.297 -4.188,4.145 -6.841,5.492 -5.471,2.775 -11.78,3.238 -17.777,1.883 0.071,-0.016 0.142,-0.035 0.214,-0.053 -6.337,-0.922 -12.383,-3.816 -16.266,-8.715 -0.66,-0.676 -1.291,-1.379 -1.878,-2.121 -2.002,-2.531 -3.478,-5.289 -4.501,-8.205 0.395,-0.131 -5.332,-12.012 3.207,-26.633 -0.005,0.004 -0.01,0.006 -0.014,0.01 0.059,-0.092 0.122,-0.184 0.182,-0.273 0.105,-0.164 0.213,-0.326 0.322,-0.484 1.537,-2.27 3.33,-4.381 5.364,-6.227 0.294,-0.266 0.589,-0.529 0.886,-0.793 0.17,-0.135 0.34,-0.268 0.512,-0.398 4.604,-2.723 10.123,-4.174 15.5,-3.912 6.021,0.293 11.574,2.527 16.222,6.305 4.62,3.754 8.178,8.879 10.19,14.395 1.185,3.246 1.86,6.701 1.678,10.141 -0.193,3.649 -1.247,7.157 -2.48,10.578 z" />
			</g><g
       id="XMLID_439_"
       transform="matrix(0.93548306,0,0,0.74885724,6.0588411,290.69171)">
				<path
   id="XMLID_571_"
   fill="#ffffff"
   d="m 291.672,416.562 c 0.216,1.207 0.835,2.258 1.529,3.26 0.697,1.006 1.693,1.836 2.236,2.938 0.664,1.346 0.2,2.629 -0.285,3.973 -0.563,1.559 -1.027,3.131 -1.455,4.73 -0.887,3.303 -1.595,6.605 -1.579,10.025 0.001,0.242 0.323,0.326 0.43,0.092 1.337,-2.941 2.383,-5.986 3.599,-8.969 0.688,-1.688 1.734,-3.486 2.424,-5.324 0.029,0.018 0.06,0.035 0.092,0.049 -0.156,0.613 -0.295,1.23 -0.41,1.85 -0.371,2.016 -0.473,4.146 -0.613,6.189 -0.146,2.119 -0.291,4.203 -0.111,6.32 0.017,0.197 0.277,0.164 0.352,0.027 1.082,-2.016 1.895,-4.133 2.768,-6.234 0.797,-1.924 1.754,-3.848 2.369,-5.824 0.661,-2.119 1.18,-4.252 1.564,-6.43 0.165,-0.934 0.495,-3.031 -0.475,-3.803 0.057,-0.223 -0.008,-0.479 -0.213,-0.6 -0.354,-0.209 -0.666,-0.365 -1.057,-0.496 -0.024,-0.008 -0.395,-0.076 -0.696,-0.119 -0.232,-0.963 -0.464,-1.92 -0.765,-2.867 -0.162,-0.508 -0.346,-1.01 -0.529,-1.514 -0.285,-1.295 -0.582,-2.586 -0.889,-3.873 0.055,-0.734 0.324,-1.418 0.889,-2.076 0.703,-0.818 3.147,-5.563 3.41,-6.936 0.063,-0.33 -0.426,-0.463 -0.608,-0.215 -1.307,1.775 -2.649,3.438 -4.528,4.691 -0.702,0.466 -7.863,8.821 -7.449,11.136 z" />
			</g><g
       id="XMLID_438_"
       transform="matrix(0.93548306,0,0,0.74885724,6.0588411,290.69171)">
				<path
   id="XMLID_570_"
   fill="#ffffff"
   d="m 302.641,449.749 c 0.992,-0.156 1.984,-0.336 3,-0.521 2.613,-0.48 5.346,-0.699 7.891,-1.438 0.327,-0.096 0.365,-0.627 -0.029,-0.633 -2.471,-0.047 -4.934,0.301 -7.415,0.199 -2.313,-0.094 -4.586,-0.438 -6.907,-0.426 -2.077,0.008 -4.157,-0.002 -6.235,-0.059 -0.114,-0.275 -0.355,-0.486 -0.707,-0.479 -0.853,0.018 -1.831,-0.004 -2.716,-0.211 -0.337,-0.23 -0.607,-0.547 -0.757,-0.943 -0.286,-0.758 -0.066,-1.566 0.383,-2.229 0.075,-0.023 0.146,-0.051 0.224,-0.072 0.141,-0.039 0.208,-0.242 0.086,-0.322 0.123,-0.135 0.255,-0.264 0.394,-0.377 0.581,-0.48 -0.049,-1.549 -0.729,-1.119 -0.281,0.119 -0.537,0.271 -0.77,0.447 -2.043,1.117 -4.441,2.023 -4.829,4.494 -0.2,1.277 -0.241,2.729 -0.073,4.152 -0.096,1.053 -0.074,2.117 0.076,3.197 0.042,0.303 0.256,0.48 0.508,0.537 0.084,0.34 0.229,0.635 0.478,0.836 0.423,0.338 1.124,0.395 1.843,0.363 0.446,0.592 1.268,0.508 1.717,0.004 0.02,0.002 0.039,0.004 0.058,0.006 -0.58,-2.344 -0.784,-4.822 -1.001,-7.148 5.084,1.525 10.29,1.746 15.51,1.742 z" />
			</g><g
       id="XMLID_437_"
       transform="matrix(0.93548306,0,0,0.74885724,6.0588411,290.69171)"
       style="fill:#d16527;fill-opacity:1">
				<path
   id="XMLID_569_"
   fill="#f9b000"
   d="m 324.057,454.704 c -2.455,-0.83 -5.199,-0.922 -7.809,-1.178 -2.824,-0.277 -5.665,-0.521 -8.481,-0.867 -1.162,-0.143 -2.329,-0.262 -3.499,-0.373 0.058,-0.006 0.115,-0.014 0.172,-0.02 -4.729,-0.08 -9.45,-0.316 -14.09,-1.453 0.245,1.617 0.484,3.336 1.059,4.969 5.301,0.473 10.671,0.988 15.959,0.678 2.741,-0.16 5.474,-0.477 8.115,-0.988 2.814,-0.545 5.621,-0.666 8.533,-0.613 0.119,0.001 0.154,-0.116 0.041,-0.155 z"
   style="fill:#d16527;fill-opacity:1" />
			</g><g
       id="XMLID_436_"
       transform="matrix(0.93548306,0,0,0.74885724,6.0588411,290.69171)"
       style="fill:#d16527;fill-opacity:1">
				<path
   id="XMLID_568_"
   fill="#f9b000"
   d="m 424.266,418.14 c -1.786,4.877 -3.618,9.607 -6.419,14.047 -2.724,4.314 -5.989,8.291 -9.783,11.756 -5.227,4.773 -11.393,8.525 -18.058,11.082 -0.117,-0.123 -0.298,-0.186 -0.479,-0.094 -5.151,2.625 -11.092,2.789 -16.778,2.787 -6.117,-0.004 -12.18,-0.721 -18.19,-1.926 -10.773,-2.162 -21.276,-6.92 -29.525,-14.121 -2.265,-1.977 -4.392,-4.113 -6.38,-6.354 -2.006,-2.262 -3.693,-4.945 -5.878,-7.021 -0.043,-0.041 -0.106,0 -0.087,0.055 0.869,2.484 2.724,4.814 4.32,6.908 1.681,2.203 3.486,4.32 5.423,6.316 3.855,3.971 8.163,7.625 12.854,10.621 5.055,3.23 10.586,5.563 16.448,6.945 3.229,0.762 6.496,1.451 9.823,1.545 0.619,0.02 1.239,0.033 1.859,0.045 1.713,0.275 3.541,0.258 5.126,0.297 2.916,0.07 5.862,-0.15 8.746,-0.543 5.685,-0.773 11.238,-2.375 16.428,-4.736 9.951,-4.531 18.408,-12.176 24.045,-21.346 3.025,-4.922 5.65,-10.535 6.603,-16.244 0.008,-0.055 -0.08,-0.07 -0.098,-0.019 z"
   style="fill:#d16527;fill-opacity:1" />
			</g><g
       id="XMLID_434_"
       transform="matrix(0.93548306,0,0,0.74885724,6.0588411,290.69171)">
			<path
   id="XMLID_567_"
   fill="#ffffff"
   d="m 498.838,337.22 c 1.79,0.729 3.349,1.938 5.068,2.826 1.719,0.889 3.775,1.449 5.509,0.754 -1.449,1.348 -3.708,1.387 -5.754,1.287 -1.496,-0.074 -3.029,-0.191 -4.421,-0.797 -2.252,-0.979 -3.695,-2.475 -6.198,-2.568 -2.323,-0.086 -4.701,0.465 -6.413,1.996 3.574,-3.197 7.071,-5.588 12.209,-3.498 z" />
		</g><g
       id="XMLID_433_"
       transform="matrix(0.93548306,0,0,0.74885724,6.0588411,290.69171)">
			<path
   id="XMLID_566_"
   fill="#ffffff"
   d="m 483.347,367.11 c -2.732,1.168 -5.797,1.621 -8.813,1.311 -1.107,-0.115 -2.233,-0.346 -3.188,-0.928 -1.492,-0.918 -2.362,-2.576 -3.715,-3.68 -1.652,-1.354 -4.146,-1.746 -5.918,-0.664 -0.33,0.199 -0.64,0.467 -0.777,0.828 -0.28,0.727 0.285,1.584 1.02,1.924 0.729,0.342 1.565,0.313 2.365,0.268 -2.032,1.34 -4.485,2.271 -6.963,1.977 -1.081,-0.123 -2.014,-0.477 -2.795,-0.99 1.834,-4.184 2.381,-9.064 1.51,-14.334 2.202,-1.215 4.938,-1.648 7.631,-1.174 3.714,0.654 7.031,2.826 9.835,5.365 -1.25,-0.811 -2.603,-1.648 -4.078,-1.666 -1.478,-0.012 -3.013,1.211 -2.713,2.646 0.247,1.16 1.542,1.867 2.739,1.986 1.197,0.117 2.381,-0.18 3.572,-0.195 1.699,-0.029 3.42,0.531 4.806,1.557 -1.091,-0.119 -2.232,-0.238 -3.22,0.184 -0.987,0.418 -1.721,1.57 -1.286,2.568 0.412,3.092 7.352,3.97 9.988,3.017 z" />
		</g><g
       id="XMLID_432_"
       transform="matrix(0.93548306,0,0,0.74885724,6.0588411,290.69171)">
			<path
   id="XMLID_565_"
   fill="#ffffff"
   d="m 476.158,388.694 c -2.721,0.406 -3.494,-0.563 -5.462,-1.84 -1.563,-1.016 -4.056,-1.635 -5.643,-0.295 1.954,-1.65 5.312,-3.184 7.936,-2.352 1.371,0.434 2.57,1.34 3.952,1.73 1.781,0.504 3.775,0.047 5.098,-1.166 -1.233,2.085 -3.441,3.558 -5.881,3.923 z" />
		</g><g
       id="XMLID_431_"
       transform="matrix(0.93548306,0,0,0.74885724,6.0588411,290.69171)">
			<path
   id="XMLID_496_"
   fill="none"
   d="m 525.025,362.372 c -1.872,0.727 -3.379,0.311 -5.273,-0.195 -1.141,-0.307 -2.232,-0.543 -3.319,-1.055 -0.562,-0.264 -2.109,-1.617 -2.608,-1.611 3.309,-0.041 4.898,-0.471 7.815,-1.563 3.337,-1.25 7.431,-0.514 10.279,1.848 -2.188,-0.734 -4.636,-0.531 -6.583,0.547 -0.406,0.225 -0.816,0.518 -0.95,0.963 -0.135,0.445 0.164,1.05 0.639,1.066 z" />
		</g><text
       transform="scale(1.0636738,0.94013785)"
       id="text523"
       x="390.96713"
       y="673.07159"
       style="font-size:7.2289px;stroke-width:0.602404"><tspan
         x="390.96713"
         y="673.07159"
         fill="#ffffff"
         font-family="Rollbox-ExtraBold"
         font-size="62.0308px"
         id="tspan513"
         style="font-style:normal;font-variant:normal;font-weight:normal;font-stretch:normal;font-size:23.2521px;font-family:sans-serif;-inkscape-font-specification:'sans-serif, Normal';font-variant-ligatures:normal;font-variant-caps:normal;font-variant-numeric:normal;font-variant-east-asian:normal;stroke-width:0.582653"><tspan
   style="font-style:normal;font-variant:normal;font-weight:normal;font-stretch:normal;font-size:39.8606px;font-family:sans-serif;-inkscape-font-specification:'sans-serif, Normal';font-variant-ligatures:normal;font-variant-caps:normal;font-variant-numeric:normal;font-variant-east-asian:normal;stroke-width:0.582653"
   id="tspan985">TURBO </tspan>TIM SERVIS</tspan></text></g></g>
</svg>
