<?xml version="1.0" encoding="utf-8"?>
<svg viewBox="32.465 29.252 393.542 134.918" xmlns="http://www.w3.org/2000/svg">
  <g transform="matrix(1, 0, 0, 1, 13.140047, -32.09528)">
    <g id="XMLID_456_" transform="matrix(0.749597, 0, 0, 1, -193.071228, -270.485138)" style="">
      <g id="XMLID_430_">
        <g id="XMLID_491_">
          <path id="XMLID_600_" fill="#F9B000" d="M465.626,367.974c0.082-0.018,0.164-0.041,0.248-0.074 C465.792,367.925,465.708,367.948,465.626,367.974z"/>
        </g>
        <g id="XMLID_490_">
          <path id="XMLID_599_" fill="#F9B000" d="M505.707,372.673c-0.771-0.246-1.651-0.635-2.005-1.504 c-0.583-1.424,0.751-2.605,1.973-2.811c1.636-0.281,3.391,0.148,4.889,1.17c-2.378-3.252-6.153-5.285-9.773-5.115 c-2.979,0.139-5.753,1.654-9.026,1.715c-3.429,0.064-7.999-2.529-8.214-6.291c-0.163-2.758,2.201-4.518,4.658-4.936 c6.509-1.117,13.301,4.412,19.017,4.438c3.774,0.02,6.753-2.529,8.066-6.109c-2.77,2.553-7.323,2.771-11.687,0.318 c-0.507-0.277-1.022-0.613-1.397-1.123c-1.045-1.424-0.303-3.334,0.985-3.627c1.262-0.283,2.719,0.453,4.043,1.158 c-4.498-4.078-10.313-3.105-15.534-1.729c-5.652,1.482-13.111,2.834-19.851-2.127c-1.846-1.35-3.555-3.271-3.871-5.25 c-0.484-3.014,2.574-4.656,5.662-4.125c2.972,0.508,5.829,2.451,8.374,4.359c-5.441-7.436-17.776-10.91-23.668-5.756 c-2.089,1.836-3.218,5.256-5.583,7.199c1.131,2.385,1.992,4.732,2.601,7.021c6.545-2.061,14.682,1.975,18.954,7.389 c-2.364-1.406-7.71-0.475-6.083,3.266c2.173,4.994,4.003-3.729,11.036,1.682c-6.085-0.914-4.738,6.535,5.037,4.17 c1.474,0.82-4.244,2.439-4.244,2.439c-12.021,3.674-14.035-7.795-17.82-1.514c1.141,0.1,2.222,1.242,3.381,0.992 c0.082-0.025,0.166-0.049,0.248-0.074c-0.084,0.033-0.166,0.057-0.248,0.074c-3.961,1.186-8.41,2.521-12.449,1.811 c-1.742,2.824-4.152,5.244-7.193,7.129c3.121,1.926,6.289,3.598,9.67,4.641c4.92,1.512,10.427,1.447,14.026-1.094 c-2.406,0.08-5.017,0.146-7.339-0.889c-2.391-1.059-4.23-3.656-3.213-5.74c0.844-1.74,3.232-2.373,5.372-2.416 c5.274-0.109,10.163,2.25,14.343,4.715c3.976,2.352,7.708,4.93,11.722,5.908c3.813,0.924,8.032,0.002,9.799-3.244 c-2.178,0.74-4.748,0.494-7.049-0.709c-0.678-0.355-1.416-0.949-1.408-1.73c0.012-0.48,0.323-0.869,0.66-1.158 c1.653-1.432,4.04-1.334,6.143-0.916c4.202,0.844,8.038,2.738,11.759,3.775c3.516,0.98,7.15,1.109,9.686-1.041 c1.761-1.494,2.816-3.928,3.799-6.238c0.761-1.783,1.508-3.535,2.24-5.258C522.342,372.226,514.348,375.409,505.707,372.673z"/>
        </g>
        <g id="XMLID_435_">
          <g id="XMLID_489_">
            <path id="XMLID_598_" fill="#F9B000" d="M451.452,347.431c-0.813-1.643-1.916-3.207-3.158-4.576 c-1.295-1.428-2.604-2.375-4.178-3.469c-0.078-0.055-0.184,0.053-0.111,0.121c2.875,2.701,4.412,6.561,5.27,10.236 c0.036,0.158,0.069,0.314,0.104,0.471c0.213,0.07,0.426,0.139,0.648,0.195c-0.223-0.057-0.436-0.125-0.648-0.195 c0.746,3.488,0.752,6.961-0.202,10.383c-1.999,7.17-6.705,13.863-12.454,18.67c-0.396,0.332,0.041,0.957,0.51,0.752 c6.06-2.648,10.674-7.906,13.457-13.693C453.466,360.55,454.438,353.468,451.452,347.431z"/>
          </g>
          <g id="XMLID_488_">
            <path id="XMLID_597_" fill="#FFFFFF" d="M306.006,387.278c0.764-2.848,1.288-5.73,2.184-8.543 c0.871-2.736,1.941-5.441,3.098-8.066c2.402-5.455,5.645-10.215,9.355-14.861c6.926-8.676,16.323-15.701,26.813-19.713 c5.928-2.266,12.479-3.783,18.876-3.906c0.204-0.004,0.238-0.305,0.025-0.311c-5.89-0.203-11.586,0.252-17.292,1.758 c-5.511,1.455-10.925,3.646-15.76,6.617c-5.142,3.16-9.674,7.191-13.577,11.73c-3.9,4.535-6.825,9.914-9.196,15.361 c-1.327,3.049-2.419,6.172-3.18,9.406c-0.798,3.393-1.63,6.963-1.646,10.463C305.706,387.368,305.958,387.454,306.006,387.278z"/>
          </g>
          <g id="XMLID_487_">
            <path id="XMLID_591_" fill="#F9B000" d="M305.046,388.958c-0.018-0.002-0.021,0.023-0.003,0.025 S305.063,388.958,305.046,388.958z"/>
          </g>
          <g id="XMLID_486_">
            <path id="XMLID_590_" fill="#FFFFFF" d="M444.374,343.937c-0.461-0.971-1.047-1.824-1.783-2.566 c-0.018-0.6-0.356-1.174-1.114-1.406c-0.495-0.15-1.001-0.271-1.513-0.375c-0.532-0.193-1.071-0.283-1.652-0.273 c-0.973-0.133-1.949-0.229-2.902-0.34c-2.056-0.24-4.104-0.611-6.148-0.951c-4.186-0.695-8.377-1.383-12.582-1.996 c-4.121-0.602-8.248-1.184-12.381-1.75c-4.213-0.58-8.489-0.838-12.722-1.252c-0.213-0.021-0.222,0.268-0.022,0.311 c4.119,0.869,8.225,1.914,12.357,2.695c4.119,0.779,8.238,1.541,12.349,2.328c4.104,0.785,8.21,1.531,12.312,2.291 c1.98,0.367,3.972,0.709,5.933,1.168c1.653,0.387,3.353,0.898,5.048,1.16c0.065,0.047,0.131,0.092,0.194,0.145 c0.821,0.686,1.532,1.531,2.218,2.355c1.316,0.953,2.561,2.025,3.918,2.953C445.443,346.927,445.052,345.368,444.374,343.937z"/>
          </g>
          <g id="XMLID_483_">
            <path id="XMLID_735_" fill="#FFFFFF" d="M445.995,348.833c-0.027-0.096-0.053-0.193-0.081-0.289 c-0.011-0.037-0.021-0.074-0.032-0.111c-1.357-0.928-2.602-2-3.918-2.953c0.09,0.109,0.18,0.219,0.269,0.324 c0.115,0.139,0.231,0.279,0.351,0.42c-2.023-0.979-4.309-1.506-6.464-1.961c-3.606-0.762-7.243-1.398-10.869-2.09 c-7.568-1.443-15.15-2.967-22.771-4.24c-14.208-2.373-28.906-3.627-43.076-0.217c-7.1,1.709-13.908,4.477-19.924,8.563 c-0.186,0.127,0.019,0.436,0.217,0.326c10.333-5.688,22.338-7.643,34.107-7.461c-6.117,0.602-12.12,1.975-18.02,4.012 c-8.605,2.969-16.975,7.033-22.829,14.076c-5.979,7.191-9.103,16.348-10.909,25.391c-0.05,0.246,0.366,0.334,0.445,0.096 c2.59-7.74,6.238-14.988,11.527-21.26c2.529-2.998,5.529-5.715,8.868-7.832c3.805-2.414,8.114-4.068,12.378-5.525 c8.863-3.027,18.154-4.896,27.574-4.539c9.899,0.375,19.665,2.447,29.344,4.291c5.484,1.045,10.963,2.072,16.454,2.998 c2.737,0.463,5.472,0.967,8.213,1.377c1.736,0.26,3.401,0.535,5.081,0.609c0.429,0.053,0.854,0.076,1.261,0.035 c0.028-0.004,0.053-0.012,0.075-0.023c0.267-0.008,0.536-0.02,0.806-0.041c0.557,0.176,1.117,0.328,1.686,0.428 c0.094,0.016,0.173,0.004,0.238-0.023c0.156,0.004,0.323-0.086,0.359-0.277c0.223-1.188,0.066-2.4-0.223-3.578 C446.116,349.179,446.072,349.003,445.995,348.833z M439.795,347.22c0.016-0.256,0.016-0.256,0.032-0.51 C439.811,346.964,439.811,346.964,439.795,347.22z"/>
          </g>
          <g id="XMLID_482_">
            <path id="XMLID_589_" fill="#F9B000" d="M446.243,357.854c0.011-0.289-0.208-0.525-0.498-0.564 c-0.682-0.092-1.336-0.146-1.98-0.166c-0.098-0.037-0.193-0.072-0.288-0.102c-2.012-0.629-4.213-0.904-6.272-1.336 c-3.867-0.811-7.786-1.35-11.662-2.15c-3.879-0.803-7.794-1.412-11.688-2.17c-3.977-0.775-7.926-1.65-11.932-2.295 c-3.916-0.629-7.855-1.229-11.818-1.492c-3.8-0.25-7.61-0.135-11.406,0.107c-15.31,0.977-30.67,6.502-41.288,17.682 c-0.147,0.154,0.119,0.383,0.279,0.248c10.691-9.006,24.604-13.117,38.52-13.621c7.746-0.281,15.638,0.566,23.27,1.785 c7.01,1.121,13.973,2.461,20.945,3.676c-1.783-0.006-3.565,0.039-5.353,0.039c-4.559,0.002-9.121,0.115-13.691-0.154 c-4.735-0.277-9.475-0.58-14.222-0.848c-0.311-0.018-0.331,0.406-0.034,0.461c4.699,0.865,9.402,1.629,14.115,2.342 c4.543,0.688,9.026,1.684,13.539,2.504c2.254,0.412,4.495,0.879,6.759,1.201c2.249,0.318,4.528,0.438,6.785,0.65 s4.519,0.438,6.776,0.59c1.324,0.09,2.788,0.262,4.217,0.281c0.025,0.076,0.088,0.137,0.188,0.139 c0.53,0.004,1.037,0.141,1.479,0.447c0.256,0.178,0.445,0.428,0.674,0.627c0.014,0.027,0.026,0.057,0.042,0.082 c0.015,0.027,0.032,0.049,0.05,0.07c-0.446,1.172-0.897,2.342-1.264,3.541c-0.025,0.082,0.071,0.146,0.139,0.096 c1.738-1.305,2.996-3.168,3.936-5.092c0.514-1.053,0.92-2.17,1.23-3.299c0.164-0.598,0.354-1.188,0.261-1.744 C446.163,358.882,446.224,358.362,446.243,357.854z"/>
          </g>
          <g id="XMLID_481_">
            <path id="XMLID_588_" fill="#F9B000" d="M389.302,378.091c0.048,0.004,0.054-0.068,0.005-0.074 C389.259,378.013,389.254,378.087,389.302,378.091z"/>
          </g>
          <g id="XMLID_480_">
            <path id="XMLID_587_" fill="#FFFFFF" d="M375.309,394.56c0.031,1.621,1.064,3.119,2.541,3.846 c1.029,0.508,3.058,0.764,3.395-0.691c0.02-0.086-0.041-0.186-0.144-0.164c-1.789,0.369-3.615-0.662-4.082-2.479 c-0.586-2.279,2.28-4.412,4.194-2.611c0.145,0.135,0.337-0.033,0.23-0.191C379.387,389.206,375.244,391.284,375.309,394.56z"/>
          </g>
          <g id="XMLID_479_">
            <path id="XMLID_586_" fill="#F9B000" d="M381.224,393.806c0.054,0.021,0.099-0.035,0.078-0.084 c-0.104-0.244-0.167-0.359-0.421-0.477c-0.262-0.121-0.549-0.16-0.835-0.146c-0.61,0.027-1.205,0.166-1.511,0.73 c-0.323,0.598-0.244,1.395,0.189,1.936c0.441,0.551,1.158,0.854,1.773,0.43c0.151-0.105,0.109-0.334-0.023-0.432 c-0.46-0.336-1.217-0.854-0.949-1.51C379.824,393.522,380.579,393.558,381.224,393.806z"/>
          </g>
          <g id="XMLID_476_">
            <path id="XMLID_723_" fill="#F9B000" d="M378.305,400.993c-1.398-0.049-2.957-0.656-4.129-1.609 c-0.338-0.42-0.753-0.813-1.098-1.162c-0.166-0.24-0.309-0.49-0.422-0.75c-0.467-1.072-0.495-2.293-0.156-3.398 c0.209-0.68,0.561-1.295,0.857-1.926c0.035-0.057,0.07-0.113,0.105-0.17c0.527-0.523,1.12-0.986,1.76-1.361 c0.034-0.02,0.055-0.049,0.065-0.078c0.489-0.125,0.965-0.281,1.442-0.465c0.184-0.07,0.082-0.377-0.111-0.326 c-1.252,0.328-2.473,0.424-3.775,0.357c-0.124-0.006-0.256,0.043-0.324,0.148c-0.719,1.1-1.4,2.219-2.079,3.346 c-0.345,0.572-1.108,1.377-0.874,2.088c0.211,0.641,1.08,1.289,1.627,1.871c0.037,0.119,0.077,0.232,0.121,0.34 c0.307,0.762,0.785,1.432,1.373,1.996c0.238,0.482,0.45,0.977,0.639,1.488c0.037,0.102,0.152,0.152,0.252,0.168 c0.837,0.141,1.615,0.244,2.4,0.002c0.752,0.068,1.495-0.076,2.339-0.336C378.43,401.181,378.444,400.999,378.305,400.993z M373.701,400.696c0.186,0.119,0.375,0.232,0.57,0.334c-0.209-0.059-0.398-0.154-0.551-0.311 C373.715,400.714,373.709,400.704,373.701,400.696z"/>
          </g>
          <g id="XMLID_475_">
            <path id="XMLID_585_" fill="#FFFFFF" d="M362.146,393.513c0.031,0.057,0.115,0.057,0.14-0.006 c0.258-0.66,0.36-1.377,0.646-2.023c0.348-0.789,0.861-1.553,1.346-2.262c0.379-0.555,0.736-1.125,1.105-1.688 c-0.516,1.611-0.563,3.471-0.13,4.973c0.052,0.18,0.287,0.201,0.366,0.031c0.457-0.998,0.834-1.945,1.502-2.838 c0.584-0.779,1.28-1.469,1.89-2.227c0.476,0.545,0.954,1.088,1.437,1.631c0.055,0.063,0.18,0.016,0.154-0.072 c-0.467-1.596-1.105-3.068-2.064-4.449c-0.716-1.029-1.696-2.926-3.143-2.855c-0.189,0.01-0.313,0.205-0.337,0.365 c-0.003,0.016-0.001,0.029-0.003,0.045c-0.035,0.018-0.069,0.037-0.102,0.066c-1.849,1.68-3.291,4.689-3.244,7.324 C361.503,390.851,361.5,392.358,362.146,393.513z"/>
          </g>
          <g id="XMLID_455_">
            <path id="XMLID_584_" fill="#FFFFFF" d="M368.531,381.479c1.816-0.441,3.861-0.885,5.746-0.826 c0.518,0.016,1.051,0.061,1.575,0.148c-0.571,0.154-1.138,0.365-1.712,0.662c-1.338,0.689-2.563,1.57-3.546,2.705 c-0.125,0.145,0.048,0.322,0.205,0.309c2.271-0.197,4.574-0.268,6.859-0.23c-0.546,0.119-1.075,0.275-1.589,0.563 c-0.832,0.463-1.176,0.984-1.719,1.717c-0.053,0.07,0.033,0.164,0.111,0.127c0.627-0.283,1.523-0.416,2.209-0.521 c0.715-0.109,1.418-0.078,2.137-0.09c-0.092,0.867-0.146,1.742-0.166,2.602c-0.002,0.092,0.129,0.154,0.184,0.066 c0.389-0.639,0.747-1.311,1.053-2.004c0.535-0.889,0.86-1.938,1.091-3c0.813-1.135,1.216-2.52,1.361-3.91 c0.024-0.23-0.136-0.436-0.345-0.521c-1.289-0.535-3.912-1.594-5.543-0.959c-0.446-0.02-0.892-0.006-1.322,0.051 c-2.396,0.311-4.936,1.248-6.738,2.811C368.258,381.286,368.354,381.522,368.531,381.479z"/>
          </g>
          <g id="XMLID_454_">
            <path id="XMLID_583_" fill="#FFFFFF" d="M383.709,396.304c0.619,0.01,1.236,0.033,1.852,0.061 c0.637,0.084,1.277,0.125,1.918,0.113c0.436,0.031,0.871,0.066,1.309,0.105c1.279,0.109,3.007,0.553,4.194,0.035 c0.02-0.008,0.029-0.023,0.044-0.037c0.026,0.064,0.056,0.127,0.091,0.189c0.043,0.076,0.166,0.104,0.217,0.018 c0.348-0.576,0.23-1.346-0.053-2.068c0.009-0.053,0.018-0.105,0.023-0.16c0.197-2.098-0.827-3.791-1.835-5.568 c-0.879-1.551-1.913-3.137-3.338-4.256c-0.062-0.049-0.149,0.016-0.136,0.086c0.399,2.018,1.239,3.957,1.669,5.955 c-0.134-0.188-0.27-0.375-0.405-0.559c-0.659-0.893-1.706-2.363-2.818-2.678c-0.096-0.027-0.179,0.041-0.165,0.137 c0.066,0.529,0.368,0.877,0.602,1.354c0.307,0.625,0.537,1.291,0.727,1.959c0.119,0.42,0.189,0.842,0.242,1.266 c-0.63-0.703-1.456-1.25-2.231-1.453c-0.164-0.043-0.366,0.113-0.265,0.287c0.384,0.652,0.783,1.33,1.057,2.035 c0.262,0.668,0.285,1.365,0.59,1.994c-0.891,0.219-1.766,0.521-2.588,0.916c-0.006,0.004-0.009,0.01-0.014,0.014 c-0.232,0.02-0.465,0.039-0.697,0.061C383.585,396.118,383.596,396.302,383.709,396.304z"/>
          </g>
          <g id="XMLID_453_">
            <path id="XMLID_582_" fill="#FFFFFF" d="M384.313,412.118c0.429,0.604,1.354,0.186,1.454-0.412 c0.216-0.158,0.391-0.354,0.587-0.557c0.253-0.262,0.502-0.473,0.616-0.797v-0.002c1.34-0.73,2.532-2.26,3.082-3.289 c0.715-1.342,1.891-3.932,1.126-5.43c-0.022-0.043-0.079-0.053-0.117-0.023c-0.597,0.451-0.911,1.256-1.374,1.844 c-0.556,0.707-1.176,1.311-1.887,1.867c-0.207,0.162-0.415,0.322-0.625,0.482c0.396-0.957,0.412-1.855,0.574-2.857 c0.018-0.113-0.146-0.156-0.207-0.072c-0.819,1.105-2.156,1.805-3.384,2.535c0.353-0.963,0.384-2.135,0.159-2.914 c-0.01-0.033-0.055-0.059-0.084-0.029c-0.448,0.473-0.918,0.92-1.531,1.184c-0.609,0.262-1.31,0.49-1.721,0.996 c-0.557-0.645-1.132-1.264-1.725-1.844c-0.053-0.053-0.131,0-0.105,0.066C380.37,406.085,382.311,409.296,384.313,412.118z"/>
          </g>
          <g id="XMLID_452_">
            <path id="XMLID_581_" fill="#FFFFFF" d="M367.462,410.646c0.178,0.436,0.532,0.801,1.077,1c1.49,0.545,2.951,1.01,4.537,1.186 c1.213,0.135,2.803,0.33,3.969-0.051c0.016-0.004,0.02-0.027,0.009-0.037c-0.978-1.021-2.6-1.744-3.804-2.504 c-0.044-0.029-0.089-0.053-0.133-0.08c1.532,0.133,3.109,0.102,4.107,0.324c0.099,0.023,0.215-0.088,0.125-0.178 c-0.93-0.928-1.889-1.99-2.983-2.732c-0.285-0.193-0.579-0.355-0.884-0.5c0.999,0.016,2.001-0.123,2.815-0.412 c0.063-0.021,0.063-0.115,0.012-0.148c-0.718-0.477-1.59-0.807-2.38-1.168c-0.826-0.377-1.65-0.715-2.533-0.912 c0.207-0.715,0.371-1.414,0.493-2.063c0.045-0.242-0.287-0.297-0.415-0.148c-0.963,1.105-1.786,2.396-2.578,3.637 c-0.736,1.15-1.604,2.42-1.947,3.748C366.845,410.013,367.104,410.472,367.462,410.646z"/>
          </g>
          <g id="XMLID_451_">
            <path id="XMLID_580_" fill="#FFFFFF" d="M367.447,401.321c0.215-0.641-0.095-1.34-0.18-1.98 c-0.111-0.852-0.172-1.691-0.322-2.539c-0.02-0.115-0.055-0.217-0.098-0.311c0.443-0.164,0.869-0.348,1.259-0.553 c0.165-0.088,0.104-0.295-0.063-0.33c-1.832-0.389-4.223-0.307-6.012,0.225c-0.6,0.178-0.787,0.986-0.383,1.336 c-0.314,1.025,0.418,2.299,0.906,3.246c0.609,1.184,1.438,2.408,2.631,3.111c0.055,0.033,0.131-0.008,0.117-0.074 c-0.248-1.254-0.679-2.486-0.633-3.781c0.019-0.502,0.119-0.988,0.166-1.449c0.242,0.596,0.562,1.15,0.976,1.686 c0.423,0.549,0.878,1.281,1.61,1.43C367.433,401.339,367.445,401.331,367.447,401.321z"/>
          </g>
          <g id="XMLID_450_">
            <path id="XMLID_579_" fill="#F9B000" d="M350.781,394.835c0.033,0.129,0.256,0.178,0.294,0.023 c0.751-3.02,1.114-6.045,2.12-9.006c1.008-2.963,2.443-5.863,4.098-8.518c0.828-1.33,1.73-2.623,2.708-3.85 c0.968-1.217,1.817-2.535,2.802-3.727c0.98-1.186,2.266-2.176,3.404-3.213c1.25-1.141,2.788-2.178,4.254-3.033 c0.122-0.07,0.037-0.256-0.099-0.197c-2.743,1.164-5.222,2.561-7.595,4.291c-0.613,0.35-1.204,0.744-1.75,1.051 c-1.32,0.742-2.523,1.574-3.647,2.578c-2.214,1.98-4.17,4.379-5.715,6.895c-3.028,4.93-5.193,10.881-4.692,16.73 c0.01,0.107,0.158,0.078,0.178-0.008c1.199-5.668,2.871-10.988,6.139-15.818c-0.89,1.951-1.57,3.979-2.063,6.107 C350.514,388.192,349.996,391.739,350.781,394.835z"/>
          </g>
          <g id="XMLID_449_">
            <path id="XMLID_578_" fill="#F9B000" d="M435.573,372.78c-1.473-0.549-3.125-0.717-4.658-1.045 c-1.738-0.373-3.512-0.727-5.274-0.959c-0.664-0.227-1.351-0.406-2.011-0.613c-1.486-0.465-2.986-0.879-4.483-1.305 c-2.291-0.652-4.696-1.512-7.095-1.865c-0.974-0.557-2.03-0.973-3.023-1.484c-0.18-0.094-0.355,0.131-0.182,0.256 c1.765,1.273,3.403,3.008,4.919,4.561c1.559,1.596,3.013,3.252,4.294,5.07c2.543,3.609,4.255,7.648,5.873,11.713 c0.101,0.254,0.555,0.18,0.541-0.098c-0.145-3.145-1.117-6.152-2.57-8.943c-0.307-1.037-0.566-2.092-0.988-3.102 c-0.407-0.977-0.943-1.883-1.595-2.701c0.188,0.012,0.372,0.023,0.548,0.039c1.826,0.162,3.652,0.33,5.479,0.482 c1.731,0.143,3.495,0.158,5.229,0.166c1.629,0.008,3.39,0.186,4.99-0.057C435.627,372.888,435.63,372.8,435.573,372.78z"/>
          </g>
          <g id="XMLID_448_">
            <path id="XMLID_577_" fill="#FFFFFF" d="M374.053,355.753c-8.953-0.371-18.203,2.02-25.163,7.633 c-7.485,6.039-12.792,14.146-14.464,23.631c-0.896,5.082-1.066,10.969,0.572,15.951c0.07,0.217,0.457,0.258,0.457-0.021 c-0.016-4.59-0.031-9.004,1.1-13.482c1.077-4.27,2.758-8.41,5.007-12.199c0.149-0.252,0.31-0.496,0.464-0.744 c-0.957,2.441-1.631,4.988-2.025,7.602c-0.691,4.572-0.436,9.633,0.357,14.205c0.033,0.189,0.357,0.184,0.354-0.018 c-0.122-8.008,2.594-15.643,6.741-22.41c1.81-2.951,4.063-5.533,6.871-7.609c2.756-2.035,6.01-3.338,8.963-5.059 c1.683-0.982,3.271-1.951,5.121-2.613c1.826-0.654,3.831-0.959,5.75-1.258c0.349-0.055,0.316-0.574-0.037-0.604 c-3.543-0.283-7.249,0.18-10.782,0.457c-0.079,0.006-0.155,0.018-0.234,0.023c3.503-1.498,7.142-2.578,10.97-3.123 C374.281,356.085,374.267,355.761,374.053,355.753z"/>
          </g>
          <g id="XMLID_447_">
            <path id="XMLID_576_" fill="#F9B000" d="M364.492,374.999c0.106-0.162,0.213-0.324,0.322-0.484 C364.705,374.673,364.598,374.835,364.492,374.999z"/>
          </g>
          <g id="XMLID_446_">
            <path id="XMLID_575_" fill="#F9B000" d="M360.416,389.169c0.694-3.783,2.672-7.354,5.712-9.791 c6.343-5.084,16.091-4.715,22.992-0.861c0.071,0.041,0.159-0.039,0.101-0.107c-2.783-3.145-6.607-4.842-10.617-5.285 c6.777,0.031,13.28,3.357,18.526,7.412c0.109,0.082,0.219-0.064,0.149-0.162c-4.832-6.717-13.471-10.324-21.728-9.428 c-3.87,0.418-7.968,1.908-11.228,4.316c-3.514,5.541-5.511,12.85-4.135,19.291C360.036,392.716,360.104,390.874,360.416,389.169 z"/>
          </g>
          <g id="XMLID_445_">
            <path id="XMLID_574_" fill="#F9B000" d="M375.305,422.167c-2.525-0.211-4.971-0.773-7.35-1.682 c-4.769-1.818-8.432-5.111-11.388-9.143c-0.095-0.129-0.302,0.01-0.233,0.148c2.276,4.559,6.451,8.281,11.046,10.561 c0.17,0.084,0.345,0.158,0.517,0.238c-0.968-0.211-1.917-0.471-2.827-0.795c-5.489-1.949-10.56-5.961-13.186-11.131 c-0.091-0.176-0.34-0.049-0.276,0.131c2.074,5.855,6.658,10.203,12.376,12.771c3.354,1.506,6.749,2.461,10.434,2.68 c0.687,0.041,1.372,0.057,2.058,0.061c-0.107,0.037-0.216,0.074-0.323,0.111c-3.926,1.361-8.367,1.432-12.422,0.441 c-4.173-1.02-7.604-3.352-10.589-6.332c-2.937-2.934-5.639-6.096-8.001-9.484c-0.032-0.047-0.112,0.006-0.085,0.055 c3.996,7.451,9.479,15.395,18.089,18.033c4.337,1.328,8.774,1.191,13.235,0.889c2.303-0.156,4.418-0.689,6.602-1.393 c2.229-0.717,4.79-1.488,6.562-3.051c0.761,0.014,1.521-0.004,2.278-0.047C386.153,425.265,380.48,424.31,375.305,422.167z"/>
          </g>
          <g id="XMLID_444_">
            <path id="XMLID_573_" fill="#F9B000" d="M418.419,391.058c0.043,14.465-5.849,29.803-20.713,33.33 c-0.043,0.043-0.086,0.084-0.13,0.125c-6.935,6.594-17.027,10.893-26.82,10.596c-5.791-0.174-11.67-2.252-16.818-4.803 c-5.344-2.648-10.203-6.537-13.23-11.652c-0.057-0.098-0.209-0.029-0.162,0.076c4.188,9.283,13.576,14.77,23.115,17.678 c9.867,3.006,20.242,1.795,28.989-3.451c4.287-2.57,8.061-5.773,11.336-9.482c-2.063,3.031-4.213,6.025-6.879,8.586 c-2.551,2.449-5.545,4.393-8.766,5.9c-6.691,3.131-14.415,3.768-21.737,2.98c-7.412-0.799-13.936-4.012-20.041-8.119 c-7.04-4.734-12.42-11.758-15.252-19.617c-0.053-0.148-0.303-0.066-0.267,0.084c1.87,7.662,6.058,14.307,11.479,20.078 c2.745,2.922,5.805,5.359,9.32,7.338c3.598,2.023,7.338,3.287,11.213,4.643c3.857,1.35,8.238,1.459,12.266,1.174 c4.227-0.301,8.42-1.045,12.391-2.475c3.944-1.42,7.679-3.098,11.06-5.559c3.801-2.766,6.557-6.482,9.252-10.232 c3.211-4.467,6.161-8.943,7.828-14.195C419.208,407.038,420.146,398.651,418.419,391.058z"/>
          </g>
          <g id="XMLID_443_">
            <path id="XMLID_572_" fill="#FFFFFF" d="M403.519,401.122c0.703-3.693,0.523-7.82-0.845-11.365 c-0.065-0.168-0.36-0.115-0.356,0.064c0.102,4.145-0.4,7.955-1.769,11.885c-0.736,2.113-1.708,4.02-2.923,5.773 c0.923-1.797,1.616-3.709,2.041-5.678c1.03-4.773,0.153-9.961-2.123-14.291c-0.071-0.135-0.292-0.07-0.26,0.084 c1.537,7.262,0.254,15.141-4.424,21.055c-2.037,2.574-4.671,4.658-7.787,5.854c-3.102,1.191-6.307,1.363-9.573,0.809 c-1.705-0.289-3.436-0.961-5.033-1.619c-1.016-0.418-2-0.9-2.946-1.445c-0.009-0.008-0.017-0.016-0.024-0.025 c3.883,4.898,9.929,7.793,16.266,8.715c2.689-0.639,5.264-1.684,7.468-2.949C397.451,414.417,402.183,408.132,403.519,401.122z"/>
          </g>
          <g id="XMLID_440_">
            <path id="XMLID_691_" fill="#FFFFFF" d="M418.419,391.058c-0.072-0.316-0.147-0.633-0.229-0.947 c-0.06-0.607-0.139-1.213-0.242-1.818c-1.161-6.711-4.737-13.158-9.563-18.051c-5.023-5.094-11.889-8.775-19.073-9.65 c-3.754-0.457-7.602-0.225-11.19,0.775c-0.093-0.074-0.221-0.107-0.384-0.059c-3.035,0.898-6.042,2.141-8.541,4.07 c-2.482,1.918-4.719,4.172-6.587,6.672c-3.86,5.17-6.27,11.398-6.825,17.834c-0.563,6.521,1.003,13.178,4.221,18.957 c2.373,4.26,5.863,7.654,9.927,10.271c0.013,0.213,0.126,0.418,0.384,0.564c0.772,0.436,1.58,0.791,2.412,1.072 c0.996,0.527,2.018,1.012,3.057,1.457c-0.161-0.01-0.32-0.027-0.48-0.039c5.176,2.143,10.849,3.098,16.516,3.063 c2.04-0.117,4.065-0.439,6.044-0.992c-0.053,0.051-0.105,0.1-0.158,0.15C412.57,420.86,418.462,405.522,418.419,391.058z M412.686,404.604c-1.146,3.186-2.364,6.336-4.52,9.01c-1.853,2.297-4.188,4.145-6.841,5.492 c-5.471,2.775-11.78,3.238-17.777,1.883c0.071-0.016,0.142-0.035,0.214-0.053c-6.337-0.922-12.383-3.816-16.266-8.715 c-0.66-0.676-1.291-1.379-1.878-2.121c-2.002-2.531-3.478-5.289-4.501-8.205c0.395-0.131-5.332-12.012,3.207-26.633 c-0.005,0.004-0.01,0.006-0.014,0.01c0.059-0.092,0.122-0.184,0.182-0.273c0.105-0.164,0.213-0.326,0.322-0.484 c1.537-2.27,3.33-4.381,5.364-6.227c0.294-0.266,0.589-0.529,0.886-0.793c0.17-0.135,0.34-0.268,0.512-0.398 c4.604-2.723,10.123-4.174,15.5-3.912c6.021,0.293,11.574,2.527,16.222,6.305c4.62,3.754,8.178,8.879,10.19,14.395 c1.185,3.246,1.86,6.701,1.678,10.141C414.973,397.675,413.919,401.183,412.686,404.604z"/>
          </g>
          <g id="XMLID_439_">
            <path id="XMLID_571_" fill="#FFFFFF" d="M291.672,416.562c0.216,1.207,0.835,2.258,1.529,3.26 c0.697,1.006,1.693,1.836,2.236,2.938c0.664,1.346,0.2,2.629-0.285,3.973c-0.563,1.559-1.027,3.131-1.455,4.73 c-0.887,3.303-1.595,6.605-1.579,10.025c0.001,0.242,0.323,0.326,0.43,0.092c1.337-2.941,2.383-5.986,3.599-8.969 c0.688-1.688,1.734-3.486,2.424-5.324c0.029,0.018,0.06,0.035,0.092,0.049c-0.156,0.613-0.295,1.23-0.41,1.85 c-0.371,2.016-0.473,4.146-0.613,6.189c-0.146,2.119-0.291,4.203-0.111,6.32c0.017,0.197,0.277,0.164,0.352,0.027 c1.082-2.016,1.895-4.133,2.768-6.234c0.797-1.924,1.754-3.848,2.369-5.824c0.661-2.119,1.18-4.252,1.564-6.43 c0.165-0.934,0.495-3.031-0.475-3.803c0.057-0.223-0.008-0.479-0.213-0.6c-0.354-0.209-0.666-0.365-1.057-0.496 c-0.024-0.008-0.395-0.076-0.696-0.119c-0.232-0.963-0.464-1.92-0.765-2.867c-0.162-0.508-0.346-1.01-0.529-1.514 c-0.285-1.295-0.582-2.586-0.889-3.873c0.055-0.734,0.324-1.418,0.889-2.076c0.703-0.818,3.147-5.563,3.41-6.936 c0.063-0.33-0.426-0.463-0.608-0.215c-1.307,1.775-2.649,3.438-4.528,4.691C298.419,405.892,291.258,414.247,291.672,416.562z"/>
          </g>
          <g id="XMLID_438_">
            <path id="XMLID_570_" fill="#FFFFFF" d="M302.641,449.749c0.992-0.156,1.984-0.336,3-0.521c2.613-0.48,5.346-0.699,7.891-1.438 c0.327-0.096,0.365-0.627-0.029-0.633c-2.471-0.047-4.934,0.301-7.415,0.199c-2.313-0.094-4.586-0.438-6.907-0.426 c-2.077,0.008-4.157-0.002-6.235-0.059c-0.114-0.275-0.355-0.486-0.707-0.479c-0.853,0.018-1.831-0.004-2.716-0.211 c-0.337-0.23-0.607-0.547-0.757-0.943c-0.286-0.758-0.066-1.566,0.383-2.229c0.075-0.023,0.146-0.051,0.224-0.072 c0.141-0.039,0.208-0.242,0.086-0.322c0.123-0.135,0.255-0.264,0.394-0.377c0.581-0.48-0.049-1.549-0.729-1.119 c-0.281,0.119-0.537,0.271-0.77,0.447c-2.043,1.117-4.441,2.023-4.829,4.494c-0.2,1.277-0.241,2.729-0.073,4.152 c-0.096,1.053-0.074,2.117,0.076,3.197c0.042,0.303,0.256,0.48,0.508,0.537c0.084,0.34,0.229,0.635,0.478,0.836 c0.423,0.338,1.124,0.395,1.843,0.363c0.446,0.592,1.268,0.508,1.717,0.004c0.02,0.002,0.039,0.004,0.058,0.006 c-0.58-2.344-0.784-4.822-1.001-7.148C292.215,449.532,297.421,449.753,302.641,449.749z"/>
          </g>
          <g id="XMLID_437_">
            <path id="XMLID_569_" fill="#F9B000" d="M324.057,454.704c-2.455-0.83-5.199-0.922-7.809-1.178 c-2.824-0.277-5.665-0.521-8.481-0.867c-1.162-0.143-2.329-0.262-3.499-0.373c0.058-0.006,0.115-0.014,0.172-0.02 c-4.729-0.08-9.45-0.316-14.09-1.453c0.245,1.617,0.484,3.336,1.059,4.969c5.301,0.473,10.671,0.988,15.959,0.678 c2.741-0.16,5.474-0.477,8.115-0.988c2.814-0.545,5.621-0.666,8.533-0.613C324.135,454.86,324.17,454.743,324.057,454.704z"/>
          </g>
          <g id="XMLID_436_">
            <path id="XMLID_568_" fill="#F9B000" d="M424.266,418.14c-1.786,4.877-3.618,9.607-6.419,14.047 c-2.724,4.314-5.989,8.291-9.783,11.756c-5.227,4.773-11.393,8.525-18.058,11.082c-0.117-0.123-0.298-0.186-0.479-0.094 c-5.151,2.625-11.092,2.789-16.778,2.787c-6.117-0.004-12.18-0.721-18.19-1.926c-10.773-2.162-21.276-6.92-29.525-14.121 c-2.265-1.977-4.392-4.113-6.38-6.354c-2.006-2.262-3.693-4.945-5.878-7.021c-0.043-0.041-0.106,0-0.087,0.055 c0.869,2.484,2.724,4.814,4.32,6.908c1.681,2.203,3.486,4.32,5.423,6.316c3.855,3.971,8.163,7.625,12.854,10.621 c5.055,3.23,10.586,5.563,16.448,6.945c3.229,0.762,6.496,1.451,9.823,1.545c0.619,0.02,1.239,0.033,1.859,0.045 c1.713,0.275,3.541,0.258,5.126,0.297c2.916,0.07,5.862-0.15,8.746-0.543c5.685-0.773,11.238-2.375,16.428-4.736 c9.951-4.531,18.408-12.176,24.045-21.346c3.025-4.922,5.65-10.535,6.603-16.244 C424.372,418.104,424.284,418.089,424.266,418.14z"/>
          </g>
        </g>
        <g id="XMLID_434_">
          <path id="XMLID_567_" fill="#FFFFFF" d="M498.838,337.22c1.79,0.729,3.349,1.938,5.068,2.826 c1.719,0.889,3.775,1.449,5.509,0.754c-1.449,1.348-3.708,1.387-5.754,1.287c-1.496-0.074-3.029-0.191-4.421-0.797 c-2.252-0.979-3.695-2.475-6.198-2.568c-2.323-0.086-4.701,0.465-6.413,1.996C490.203,337.521,493.7,335.13,498.838,337.22z"/>
        </g>
        <g id="XMLID_433_">
          <path id="XMLID_566_" fill="#FFFFFF" d="M483.347,367.11c-2.732,1.168-5.797,1.621-8.813,1.311 c-1.107-0.115-2.233-0.346-3.188-0.928c-1.492-0.918-2.362-2.576-3.715-3.68c-1.652-1.354-4.146-1.746-5.918-0.664 c-0.33,0.199-0.64,0.467-0.777,0.828c-0.28,0.727,0.285,1.584,1.02,1.924c0.729,0.342,1.565,0.313,2.365,0.268 c-2.032,1.34-4.485,2.271-6.963,1.977c-1.081-0.123-2.014-0.477-2.795-0.99c1.834-4.184,2.381-9.064,1.51-14.334 c2.202-1.215,4.938-1.648,7.631-1.174c3.714,0.654,7.031,2.826,9.835,5.365c-1.25-0.811-2.603-1.648-4.078-1.666 c-1.478-0.012-3.013,1.211-2.713,2.646c0.247,1.16,1.542,1.867,2.739,1.986c1.197,0.117,2.381-0.18,3.572-0.195 c1.699-0.029,3.42,0.531,4.806,1.557c-1.091-0.119-2.232-0.238-3.22,0.184c-0.987,0.418-1.721,1.57-1.286,2.568 C473.771,367.185,480.711,368.063,483.347,367.11z"/>
        </g>
        <g id="XMLID_432_">
          <path id="XMLID_565_" fill="#FFFFFF" d="M476.158,388.694c-2.721,0.406-3.494-0.563-5.462-1.84 c-1.563-1.016-4.056-1.635-5.643-0.295c1.954-1.65,5.312-3.184,7.936-2.352c1.371,0.434,2.57,1.34,3.952,1.73 c1.781,0.504,3.775,0.047,5.098-1.166C480.806,386.856,478.598,388.329,476.158,388.694z"/>
        </g>
        <g id="XMLID_431_">
          <path id="XMLID_496_" fill="none" d="M525.025,362.372c-1.872,0.727-3.379,0.311-5.273-0.195 c-1.141-0.307-2.232-0.543-3.319-1.055c-0.562-0.264-2.109-1.617-2.608-1.611c3.309-0.041,4.898-0.471,7.815-1.563 c3.337-1.25,7.431-0.514,10.279,1.848c-2.188-0.734-4.636-0.531-6.583,0.547c-0.406,0.225-0.816,0.518-0.95,0.963 C524.251,361.751,524.55,362.356,525.025,362.372z"/>
        </g>
      </g>
    </g>
    <path id="XMLID_2_" fill="none" d="M 209.674 100.159 C 208.246 100.796 207.132 100.31 205.732 99.715 C 204.889 99.355 204.08 99.067 203.284 98.505 C 202.873 98.215 201.762 96.79 201.388 96.772 C 203.866 96.887 205.073 96.533 207.294 95.58 C 209.837 94.489 212.877 95.417 214.926 97.91 C 213.314 97.074 211.474 97.161 209.977 98.146 C 209.665 98.352 209.348 98.625 209.232 99.063 C 209.116 99.501 209.318 100.12 209.674 100.159 Z" style=""/>
    <path d="M 131.592 140.028 L 155.777 140.028 L 155.812 148.148 Q 155.042 148.288 154.517 148.148 L 152.872 141.813 L 145.592 141.813 L 145.592 166.348 L 149.127 166.698 Q 149.267 167.223 149.127 167.993 Q 146.922 167.888 143.807 167.888 Q 141.392 167.888 138.452 167.958 Q 138.242 167.328 138.452 166.698 L 141.707 166.278 Q 141.847 164.948 141.847 162.183 L 141.847 141.813 L 134.497 141.813 L 132.852 148.148 Q 132.327 148.288 131.557 148.148 Z" transform="matrix(0.784482, 0, 0, 1.871795, 26.23761, -137.096817)" style="fill: rgb(230, 238, 230); white-space: pre;"/>
    <path d="M 179.287 158.998 L 179.287 141.568 L 176.452 141.218 L 176.452 139.923 Q 178.377 140.063 179.987 140.063 Q 181.317 140.063 183.557 139.958 L 183.557 141.218 L 181.352 141.638 Q 181.212 142.968 181.212 145.733 L 181.212 158.788 Q 181.072 163.758 178.867 166.173 Q 176.662 168.588 171.132 168.588 Q 160.702 168.588 160.702 159.103 L 160.702 141.568 L 157.867 141.218 Q 157.727 140.693 157.867 139.923 Q 159.792 140.063 162.662 140.063 Q 165.217 140.063 167.492 139.958 Q 167.702 140.588 167.492 141.218 L 164.587 141.638 Q 164.447 142.968 164.447 145.733 L 164.447 159.103 Q 164.447 163.023 166.267 164.686 Q 168.087 166.348 172.287 166.348 Q 176.242 166.348 177.765 164.616 Q 179.287 162.883 179.287 158.998 Z" transform="matrix(0.784482, 0, 0, 1.871795, 26.23761, -137.096817)" style="fill: rgb(230, 238, 230); white-space: pre;"/>
    <path d="M 187.052 139.923 Q 188.487 139.923 191.619 139.783 Q 194.752 139.643 197.307 139.643 Q 202.627 139.643 204.902 141.761 Q 207.177 143.878 207.177 147.658 Q 207.177 149.933 205.602 151.753 Q 204.027 153.573 201.472 154.483 Q 202.977 157.038 204.289 159.278 Q 205.602 161.518 206.197 162.603 Q 206.792 163.688 207.282 164.546 Q 207.772 165.403 207.999 165.718 Q 208.227 166.033 208.437 166.243 L 210.957 166.593 Q 211.097 167.118 210.957 167.888 L 205.007 167.888 L 199.722 158.298 Q 198.672 156.303 197.727 155.218 L 197.237 155.218 Q 195.452 155.218 193.632 155.008 L 193.632 166.348 L 196.817 166.698 Q 196.957 167.223 196.817 167.993 Q 194.612 167.888 191.847 167.888 Q 189.782 167.888 186.842 167.958 Q 186.632 167.328 186.842 166.698 L 189.747 166.278 Q 189.887 164.948 189.887 162.183 L 189.887 141.568 L 187.052 141.218 Q 186.912 140.693 187.052 139.923 Z M 193.632 145.733 L 193.632 153.573 Q 194.717 153.713 196.782 153.713 Q 198.567 153.713 199.844 153.136 Q 201.122 152.558 201.752 151.596 Q 202.382 150.633 202.662 149.618 Q 202.942 148.603 202.942 147.483 Q 202.942 144.473 201.437 142.793 Q 199.932 141.113 196.432 141.113 Q 195.137 141.113 193.842 141.358 Q 193.632 143.353 193.632 145.733 Z" transform="matrix(0.784482, 0, 0, 1.871795, 26.23761, -137.096817)" style="fill: rgb(230, 238, 230); white-space: pre;"/>
    <path d="M 212.259 139.923 Q 214.044 139.923 217.404 139.783 Q 220.764 139.643 221.849 139.643 L 222.794 139.643 Q 227.379 139.643 229.619 141.516 Q 231.859 143.388 231.859 146.433 Q 231.859 150.773 226.189 152.453 L 226.189 152.558 Q 229.479 153.048 231.387 155.131 Q 233.294 157.213 233.294 160.118 Q 233.294 164.003 230.652 166.173 Q 228.009 168.343 222.899 168.343 Q 221.499 168.343 218.367 168.116 Q 215.234 167.888 213.379 167.888 Q 213.169 167.888 212.714 167.906 Q 212.259 167.923 212.049 167.923 Q 211.839 167.293 212.049 166.663 L 214.954 166.278 Q 215.094 164.948 215.094 162.183 L 215.094 141.568 L 212.259 141.218 Q 212.119 140.693 212.259 139.923 Z M 221.639 153.678 L 218.839 153.678 L 218.839 166.348 Q 220.624 166.663 221.674 166.733 Q 225.909 166.733 227.519 165.141 Q 229.129 163.548 229.129 160.153 Q 229.129 157.423 227.152 155.551 Q 225.174 153.678 221.639 153.678 Z M 221.884 141.113 Q 220.134 141.113 218.979 141.358 Q 218.839 142.688 218.839 145.733 L 218.839 151.928 L 221.569 151.928 Q 224.824 151.928 226.312 150.598 Q 227.799 149.268 227.799 146.643 Q 227.799 143.983 226.172 142.548 Q 224.544 141.113 221.884 141.113 Z" transform="matrix(0.784482, 0, 0, 1.871795, 26.23761, -137.096817)" style="fill: rgb(230, 238, 230); white-space: pre;"/>
    <path d="M 250.824 139.328 Q 254.254 139.328 256.984 140.553 Q 259.714 141.778 261.394 143.826 Q 263.074 145.873 263.967 148.376 Q 264.859 150.878 264.859 153.608 Q 264.859 159.908 260.904 164.248 Q 256.949 168.588 250.824 168.588 Q 247.429 168.588 244.699 167.363 Q 241.969 166.138 240.289 164.091 Q 238.609 162.043 237.717 159.558 Q 236.824 157.073 236.824 154.378 Q 236.824 150.353 238.592 146.923 Q 240.359 143.493 243.597 141.411 Q 246.834 139.328 250.824 139.328 Z M 250.789 166.663 Q 254.079 166.663 256.372 164.756 Q 258.664 162.848 259.662 159.943 Q 260.659 157.038 260.659 153.468 Q 260.659 150.073 259.662 147.396 Q 258.664 144.718 256.389 142.986 Q 254.114 141.253 250.789 141.253 Q 245.994 141.253 243.509 144.753 Q 241.024 148.253 241.024 153.503 Q 241.024 157.108 242.004 159.996 Q 242.984 162.883 245.259 164.773 Q 247.534 166.663 250.789 166.663 Z" transform="matrix(0.784482, 0, 0, 1.871795, 26.23761, -137.096817)" style="fill: rgb(230, 238, 230); white-space: pre;"/>
    <path d="M 276.27 140.028 L 300.455 140.028 L 300.49 148.148 Q 299.72 148.288 299.195 148.148 L 297.55 141.813 L 290.27 141.813 L 290.27 166.348 L 293.805 166.698 Q 293.945 167.223 293.805 167.993 Q 291.6 167.888 288.485 167.888 Q 286.07 167.888 283.13 167.958 Q 282.92 167.328 283.13 166.698 L 286.385 166.278 Q 286.525 164.948 286.525 162.183 L 286.525 141.813 L 279.175 141.813 L 277.53 148.148 Q 277.005 148.288 276.235 148.148 Z" transform="matrix(0.784482, 0, 0, 1.871795, 26.23761, -137.096817)" style="fill: rgb(230, 238, 230); white-space: pre;"/>
    <path d="M 309.825 145.733 L 309.825 166.348 L 312.66 166.698 Q 312.8 167.223 312.66 167.993 Q 310.455 167.888 307.865 167.888 Q 305.975 167.888 303.035 167.958 Q 302.825 167.328 303.035 166.698 L 305.94 166.278 Q 306.08 164.948 306.08 162.183 L 306.08 141.568 L 303.245 141.218 Q 303.105 140.693 303.245 139.923 Q 305.17 140.063 308.04 140.063 Q 310.595 140.063 312.87 139.958 Q 313.08 140.588 312.87 141.218 L 309.965 141.638 Q 309.825 142.968 309.825 145.733 Z" transform="matrix(0.784482, 0, 0, 1.871795, 26.23761, -137.096817)" style="fill: rgb(230, 238, 230); white-space: pre;"/>
    <path d="M 342.793 162.183 L 342.793 142.058 L 332.223 168.938 L 331.313 168.938 L 321.128 142.933 L 321.128 162.183 Q 321.128 164.948 321.268 166.278 L 324.523 166.698 Q 324.733 167.328 324.523 167.958 Q 321.513 167.888 320.253 167.888 Q 318.153 167.888 316.018 167.993 Q 315.878 167.223 316.018 166.698 L 319.203 166.348 L 319.203 145.733 Q 319.203 142.968 319.063 141.638 L 316.158 141.218 Q 315.948 140.623 316.158 140.028 L 323.858 140.028 L 332.643 163.058 L 341.638 140.028 Q 342.443 140.063 344.088 140.063 Q 344.438 140.063 349.583 139.958 Q 349.793 140.588 349.583 141.218 L 346.678 141.638 Q 346.538 142.968 346.538 145.733 L 346.538 166.348 L 349.373 166.698 Q 349.513 167.223 349.373 167.993 Q 347.168 167.888 344.578 167.888 Q 342.688 167.888 339.748 167.958 Q 339.538 167.083 339.748 166.698 L 342.653 166.278 Q 342.793 164.948 342.793 162.183 Z" transform="matrix(0.784482, 0, 0, 1.871795, 26.23761, -137.096817)" style="fill: rgb(230, 238, 230); white-space: pre;"/>
    <path d="M 365.581 165.473 Q 367.611 166.873 371.286 166.873 Q 373.771 166.873 375.013 165.438 Q 376.256 164.003 376.256 162.008 Q 376.256 160.958 376.081 160.241 Q 375.906 159.523 375.328 158.613 Q 374.751 157.703 373.491 156.793 Q 372.231 155.883 370.201 154.868 Q 367.821 153.678 366.351 152.628 Q 364.881 151.578 364.146 150.458 Q 363.411 149.338 363.166 148.323 Q 362.921 147.308 362.921 145.803 Q 362.921 142.723 365.388 141.026 Q 367.856 139.328 371.216 139.328 Q 375.381 139.328 379.266 141.428 L 379.266 148.148 Q 378.076 148.358 377.271 148.148 L 376.151 142.093 Q 373.911 140.868 371.146 140.868 Q 369.291 140.868 368.013 141.971 Q 366.736 143.073 366.736 145.068 Q 366.736 146.188 366.876 146.818 Q 367.016 147.448 367.576 148.306 Q 368.136 149.163 369.431 150.021 Q 370.726 150.878 372.896 151.928 Q 380.386 155.568 380.386 160.608 Q 380.386 164.178 377.656 166.383 Q 374.926 168.588 370.516 168.588 Q 366.141 168.588 362.466 166.523 L 362.466 159.803 Q 363.656 159.593 364.461 159.803 Z" transform="matrix(0.784482, 0, 0, 1.871795, 26.23761, -137.096817)" style="fill: rgb(230, 238, 230); white-space: pre;"/>
    <path d="M 387.386 162.218 L 387.386 141.568 L 384.551 141.183 Q 384.341 140.553 384.551 139.923 L 389.346 140.028 L 403.486 140.028 L 403.521 148.148 Q 402.751 148.288 402.226 148.148 L 400.581 141.813 L 391.131 141.813 L 391.131 152.313 L 396.731 152.208 L 397.536 148.778 Q 398.061 148.638 398.831 148.778 Q 398.691 150.738 398.691 153.293 Q 398.691 155.638 398.796 157.843 Q 398.166 158.053 397.536 157.843 L 396.766 154.203 L 391.131 154.098 L 391.131 166.103 L 401.631 166.103 L 403.276 159.768 Q 403.801 159.628 404.571 159.768 L 404.536 167.888 L 389.346 167.888 L 384.341 167.993 Q 384.131 167.363 384.341 166.733 L 387.246 166.348 Q 387.386 164.563 387.386 162.218 Z" transform="matrix(0.784482, 0, 0, 1.871795, 26.23761, -137.096817)" style="fill: rgb(230, 238, 230); white-space: pre;"/>
    <path d="M 408.31 139.923 Q 409.745 139.923 412.878 139.783 Q 416.01 139.643 418.565 139.643 Q 423.885 139.643 426.16 141.761 Q 428.435 143.878 428.435 147.658 Q 428.435 149.933 426.86 151.753 Q 425.285 153.573 422.73 154.483 Q 424.235 157.038 425.548 159.278 Q 426.86 161.518 427.455 162.603 Q 428.05 163.688 428.54 164.546 Q 429.03 165.403 429.258 165.718 Q 429.485 166.033 429.695 166.243 L 432.215 166.593 Q 432.355 167.118 432.215 167.888 L 426.265 167.888 L 420.98 158.298 Q 419.93 156.303 418.985 155.218 L 418.495 155.218 Q 416.71 155.218 414.89 155.008 L 414.89 166.348 L 418.075 166.698 Q 418.215 167.223 418.075 167.993 Q 415.87 167.888 413.105 167.888 Q 411.04 167.888 408.1 167.958 Q 407.89 167.328 408.1 166.698 L 411.005 166.278 Q 411.145 164.948 411.145 162.183 L 411.145 141.568 L 408.31 141.218 Q 408.17 140.693 408.31 139.923 Z M 414.89 145.733 L 414.89 153.573 Q 415.975 153.713 418.04 153.713 Q 419.825 153.713 421.103 153.136 Q 422.38 152.558 423.01 151.596 Q 423.64 150.633 423.92 149.618 Q 424.2 148.603 424.2 147.483 Q 424.2 144.473 422.695 142.793 Q 421.19 141.113 417.69 141.113 Q 416.395 141.113 415.1 141.358 Q 414.89 143.353 414.89 145.733 Z" transform="matrix(0.784482, 0, 0, 1.871795, 26.23761, -137.096817)" style="fill: rgb(230, 238, 230); white-space: pre;"/>
    <path d="M 444.78 163.618 L 444.815 163.618 Q 445.235 161.973 446.18 159.313 L 452.55 141.568 L 449.715 141.218 Q 449.575 140.693 449.715 139.923 Q 451.64 140.063 453.425 140.063 Q 454.965 140.063 457.205 139.958 Q 457.415 140.588 457.205 141.218 L 454.895 141.638 Q 454.335 142.478 453.495 144.753 L 444.465 168.938 L 443.24 168.938 L 432.88 141.568 L 430.045 141.218 Q 429.905 140.693 430.045 139.923 Q 431.97 140.063 435.015 140.063 Q 437.745 140.063 440.02 139.958 Q 440.23 140.588 440.02 141.218 L 437.115 141.638 L 443.52 159.313 Q 444.255 161.448 444.78 163.618 Z" transform="matrix(0.784482, 0, 0, 1.871795, 26.23761, -137.096817)" style="fill: rgb(230, 238, 230); white-space: pre;"/>
    <path d="M 465.283 145.733 L 465.283 166.348 L 468.118 166.698 Q 468.258 167.223 468.118 167.993 Q 465.913 167.888 463.323 167.888 Q 461.433 167.888 458.493 167.958 Q 458.283 167.328 458.493 166.698 L 461.398 166.278 Q 461.538 164.948 461.538 162.183 L 461.538 141.568 L 458.703 141.218 Q 458.563 140.693 458.703 139.923 Q 460.628 140.063 463.498 140.063 Q 466.053 140.063 468.328 139.958 Q 468.538 140.588 468.328 141.218 L 465.423 141.638 Q 465.283 142.968 465.283 145.733 Z" transform="matrix(0.784482, 0, 0, 1.871795, 26.23761, -137.096817)" style="fill: rgb(230, 238, 230); white-space: pre;"/>
    <path d="M 475.676 165.473 Q 477.706 166.873 481.381 166.873 Q 483.866 166.873 485.109 165.438 Q 486.351 164.003 486.351 162.008 Q 486.351 160.958 486.176 160.241 Q 486.001 159.523 485.424 158.613 Q 484.846 157.703 483.586 156.793 Q 482.326 155.883 480.296 154.868 Q 477.916 153.678 476.446 152.628 Q 474.976 151.578 474.241 150.458 Q 473.506 149.338 473.261 148.323 Q 473.016 147.308 473.016 145.803 Q 473.016 142.723 475.484 141.026 Q 477.951 139.328 481.311 139.328 Q 485.476 139.328 489.361 141.428 L 489.361 148.148 Q 488.171 148.358 487.366 148.148 L 486.246 142.093 Q 484.006 140.868 481.241 140.868 Q 479.386 140.868 478.109 141.971 Q 476.831 143.073 476.831 145.068 Q 476.831 146.188 476.971 146.818 Q 477.111 147.448 477.671 148.306 Q 478.231 149.163 479.526 150.021 Q 480.821 150.878 482.991 151.928 Q 490.481 155.568 490.481 160.608 Q 490.481 164.178 487.751 166.383 Q 485.021 168.588 480.611 168.588 Q 476.236 168.588 472.561 166.523 L 472.561 159.803 Q 473.751 159.593 474.556 159.803 Z" transform="matrix(0.784482, 0, 0, 1.871795, 26.23761, -137.096817)" style="fill: rgb(230, 238, 230); white-space: pre;"/>
  </g>
</svg>